<mxfile host="Electron" modified="2023-09-22T01:04:33.636Z" agent="Mozilla/5.0 (Windows NT 10.0; Win64; x64) AppleWebKit/537.36 (KHTML, like Gecko) draw.io/21.2.8 Chrome/112.0.5615.165 Electron/24.2.0 Safari/537.36" etag="5b-FNZGYbaSF7rppHu-l" version="21.2.8" type="device">
  <diagram name="第 1 页" id="l7m3eHrkjkg6ThzcJMWm">
    <mxGraphModel dx="1436" dy="1056" grid="1" gridSize="10" guides="1" tooltips="1" connect="1" arrows="1" fold="1" page="0" pageScale="1" pageWidth="827" pageHeight="1169" math="0" shadow="0">
      <root>
        <mxCell id="0" />
        <mxCell id="1" parent="0" />
        <mxCell id="7m8nNuz5X5mmQi77jWC5-3" value="后台管理端" style="rounded=1;whiteSpace=wrap;html=1;fontSize=20;fillColor=#eeeeee;strokeColor=none;align=center;verticalAlign=top;fontStyle=1;arcSize=9;" parent="1" vertex="1">
          <mxGeometry x="-320" y="70" width="140" height="140" as="geometry" />
        </mxCell>
        <mxCell id="ATEDQ_KVCxQ0XwKxGGRF-72" value="前端服务" style="rounded=1;whiteSpace=wrap;html=1;fontSize=20;fillColor=#eeeeee;strokeColor=none;align=center;verticalAlign=top;fontStyle=1;arcSize=10;" parent="1" vertex="1">
          <mxGeometry x="-90" y="-20" width="140" height="140" as="geometry" />
        </mxCell>
        <mxCell id="ATEDQ_KVCxQ0XwKxGGRF-64" value="移动端" style="rounded=1;whiteSpace=wrap;html=1;fontSize=20;fillColor=#eeeeee;strokeColor=none;align=center;verticalAlign=top;fontStyle=1;arcSize=9;" parent="1" vertex="1">
          <mxGeometry x="-320" y="-90" width="140" height="140" as="geometry" />
        </mxCell>
        <mxCell id="ATEDQ_KVCxQ0XwKxGGRF-63" value="存储服务" style="rounded=1;whiteSpace=wrap;html=1;fontSize=20;fillColor=#eeeeee;strokeColor=none;verticalAlign=top;fontStyle=1" parent="1" vertex="1">
          <mxGeometry x="105" y="260" width="450" height="120" as="geometry" />
        </mxCell>
        <mxCell id="ATEDQ_KVCxQ0XwKxGGRF-10" value="" style="html=1;verticalLabelPosition=bottom;labelBackgroundColor=#ffffff;verticalAlign=top;shadow=0;dashed=0;strokeWidth=1;shape=mxgraph.ios7.misc.iphone;strokeColor=#666666;fontSize=16;fillColor=#f5f5f5;gradientColor=#b3b3b3;" parent="1" vertex="1">
          <mxGeometry x="-270" y="-50" width="40" height="80" as="geometry" />
        </mxCell>
        <mxCell id="ATEDQ_KVCxQ0XwKxGGRF-11" value="" style="sketch=0;pointerEvents=1;shadow=0;dashed=0;html=1;strokeColor=#666666;fillColor=#f5f5f5;labelPosition=center;verticalLabelPosition=bottom;verticalAlign=top;outlineConnect=0;align=center;shape=mxgraph.office.devices.laptop;fontSize=16;gradientColor=#b3b3b3;" parent="1" vertex="1">
          <mxGeometry x="-301.17" y="130" width="102.35" height="60" as="geometry" />
        </mxCell>
        <mxCell id="ATEDQ_KVCxQ0XwKxGGRF-24" value="后端服务" style="rounded=1;whiteSpace=wrap;html=1;fontSize=20;arcSize=5;fillColor=#eeeeee;strokeColor=none;verticalAlign=top;fontStyle=1" parent="1" vertex="1">
          <mxGeometry x="140" y="-90" width="380" height="290" as="geometry" />
        </mxCell>
        <mxCell id="ATEDQ_KVCxQ0XwKxGGRF-73" value="" style="shape=flexArrow;endArrow=classic;html=1;rounded=0;fontSize=12;startSize=8;endSize=8;curved=1;width=22;strokeColor=#009639;" parent="1" edge="1">
          <mxGeometry width="50" height="50" relative="1" as="geometry">
            <mxPoint x="-150" y="59" as="sourcePoint" />
            <mxPoint x="-110" y="60" as="targetPoint" />
          </mxGeometry>
        </mxCell>
        <mxCell id="ATEDQ_KVCxQ0XwKxGGRF-74" value="" style="shape=flexArrow;endArrow=classic;html=1;rounded=0;fontSize=12;startSize=8;endSize=8;curved=1;width=22;strokeColor=#009639;" parent="1" edge="1">
          <mxGeometry width="50" height="50" relative="1" as="geometry">
            <mxPoint x="80" y="60" as="sourcePoint" />
            <mxPoint x="120" y="61" as="targetPoint" />
          </mxGeometry>
        </mxCell>
        <mxCell id="ATEDQ_KVCxQ0XwKxGGRF-75" value="" style="shape=flexArrow;endArrow=classic;html=1;rounded=0;fontSize=12;startSize=8;endSize=8;curved=1;width=22;strokeColor=#009639;" parent="1" edge="1">
          <mxGeometry width="50" height="50" relative="1" as="geometry">
            <mxPoint x="329.04999999999995" y="210" as="sourcePoint" />
            <mxPoint x="329.04999999999995" y="249" as="targetPoint" />
          </mxGeometry>
        </mxCell>
        <mxCell id="ATEDQ_KVCxQ0XwKxGGRF-76" value="" style="group" parent="1" vertex="1" connectable="0">
          <mxGeometry x="-80" y="40" width="120" height="60" as="geometry" />
        </mxCell>
        <mxCell id="ATEDQ_KVCxQ0XwKxGGRF-2" value="" style="rounded=1;whiteSpace=wrap;html=1;fontSize=16;container=0;strokeColor=none;" parent="ATEDQ_KVCxQ0XwKxGGRF-76" vertex="1">
          <mxGeometry width="120" height="60" as="geometry" />
        </mxCell>
        <mxCell id="ATEDQ_KVCxQ0XwKxGGRF-1" value="" style="shape=image;verticalLabelPosition=bottom;labelBackgroundColor=default;verticalAlign=top;aspect=fixed;imageAspect=0;image=data:image/png,iVBORw0KGgoAAAANSUhEUgAABBoAAAGgCAMAAAAza/TZAAAAw1BMVEX///8AAAAAljmZmZkAAAAAljmZmZkAAAAAljmZmZkAAAAAljmZmZkAAAAAljmZmZkAAAAAljmZmZkAAAAAljmZmZkAAAAAljmZmZkAAAAAljmZmZkAAAAAljmZmZkAAAAAljmZmZkAAAAAljmZmZkAAAAAljmZmZkAAAAAljmZmZkAAAAAljmZmZkAAAAAljkQnUUgo1Iwql5AsGtQt3dgvoRwxJCAy5yQ0amZmZmg2LWw3sLA5c7Q7Nvg8ufw+fP///+d/X+tAAAALnRSTlMAEBAQICAgMDAwQEBAUFBQYGBgcHBwgICAkJCQoKCgsLCwwMDA0NDQ4ODg8PDwnsvd5AAAHvZJREFUeNrtnWtDE0cbQBONxnc1Co0uxoKhgdhgkAVBEZXL//9VLxerXJLZeWaemb3MOV/a2jYkYefsPLfZTqdxPFtd29za2tpYe/mkAwBwxfON3eIPO++wAwB0VneK+2w+42sBSHzHsFUsYuMRXw1AujzaKJawu8a3A5Aqa7vFcnae8wUBpMjLncLMFvlIgOR4slWU846UA0BaSYZ3hRW7r/muANLh9W5hywdSDgCJ8HynkLBJygEghSTDZiFljZQDQNuTDGuFAzurfHMAbWZ1t3Bji5QDQHuTDB8KdzZIOQC0M8mwUXhB7zRAK5MMu4UvOy/5HgFalmTYKTTYYlwboEU82yq0YFwboDWxxEahCL3TAO1AIcnAuDZA23i+U+jDuDZAs3myVYSBcW2ABicZ3hXB2KV3GqChvN4tQsK4NkAjkwwfitAwrg3QuCTDZhGBXca1ARqVZFgrIsG4NkBzWN0t4sG4NkBDkgxbRVzonQZoQJJho4gO49oAtU8y7BZVwLg2QJ15uVNUBePaAHXl2VZRJfROA9QyltgoKoZxbYD68Xq3qB7GtQHqxfOdoh4wrg1QH55sFfWB3mmAmiQZ3hW1gnFtgDqwulvUDca1ASpPMnwo6giPugKoNMmwWdQUxrUBqksyrBU1hnFtgIqSDDtFvaF3GqCCJMNWUX8Y1waInGTYKBoB49oAMVnbLZoC49oAsXi5UzQJeqcBYvBsq2gajGsDhKZuXdGMawPUgde7RTNhXBsgHM93iubCo64AwvBkq2g29E4DBEgyrBWNh3FtAG1Wd4s2wKOuAFSTDB+KtsC4NoBakmGzaBGMawMoJRl2i3ZB7zSAQpJhp2gfjGsD+PFsq2gnjGsDeMQSG0VrYVwbwJXWJRnonQbw5+VO0XYY1waQ8mSrSAHGtQFESYZ3RSIwrg1gz+vdIh141BWAHc93irRgXBvAIsmwWaQHvdMAJUmGtSJJeNQVgInV3SJVGNcGWJpk+FCkDOPaAAuTDBtF4tA7DbAgybBbAOPaAHd5uYMXGNcGuMezLZzAuDbA/VhiAx/QOw1wH5IMjGsDPOA5SQbGtQHu84QkA+PaAA+SDO8wgCHlQO80JMprkgyMawM8SDJ8YO0zrg1wP8mwybq3650m5QApJRnWWPSMawPcZ5Ukg6iQScoB0kgyULCkdxrgQZKBrminlANXDrQbuqJdUw6Ma0OLYfTaJ+XAuDa0FEav6Z0GeACj1wopB8a1oXXQFa2TcqCQCa2C0Wu9lAO909AaGL1Whd5paEmSgdFr7ZQDvdPQAuiKDgDj2tD4JAOj1/ROAzyAWCJcVEF7JDQ3y8CWIWgHFFcYYAZYFFRwjQFmANwALYFmhvDQOA3NgzPeYsA0JjSNZyzbKA0OXGlAOAGEFNB4nrNoI7U3cK1Bo+AxE7FgngKaxCOWLNkGgIessmSjwfkNQDwBRBTQbBjEpiUSgFRDpWxxvUFjoHRJ+RIANVQM1xugBkANgBoANQBqcGX/8Pj45zXHx0efK1+mB1+Of1y/ma+HqAGgKjV8/nZ6cZfTb0cVeuHb2a23cv79EDUAxFfD/tezi4X8+FKNGL4/eCdnX1ADQGQ1fD2/WMr5t4PYYtj/tvCd/PyMGgAiquHz6YWZ73Hl8PlsmaW+oAaAaGr4cn5RyvF+PDMcGd7Pd9QAEEkN3y5sOItWJPhi3sCgBoAoavh+Ycm3SNFEtW+D6w1Qg8U9+m4tM0ZQsV8a3RyhBoDgavh8IeAsQoXgZ+m7OD9ADQCh1XAmUcPFeXA32GxifqAGgMBqOL64qJcbrFR1iBoAgqph/1yohtD5BrvMxw/UABBUDV8vxPwMqoZTuzdxgBoAQqrhVK6GoI0FB5bv4StqAAiohoMLF75Uv4s5RQ0AAdXwxUkNAbOAP2zfAmoACKiGYzc1hCtTnFdvJ643QA0W7UWRyxTW7+AINQDUTw2hYn371sxj1BCRXjbM1yeT2d4tppPJKF/Jenw7qCFCmeIQNdSN/nB9smdkMlrp8z2hhrDlw0TV0M8W0lN9ta6LFkqs8Jv5eOigh16W2b7XJf+po5N65V94NzPQVf9dX9MSNQSJ9hNVw5IFOFV9NemF1x/N9kTMRtKFmi97qcz2P5276XPJq+W31TA3bZTcQzPDq47aooYQZQrUcIdhZWro5UIv/LLDsBdXDXvjUGrorJg+6ED7V32luW5b1HBxto8awqph3q1GDdl4z5n1LKoa9rJQajCtYsffTKczNLzmSqc1aghQpkAN3ltMfzVkkz0vJllMNUyDqcG093f7zRijFKcgpa5q0C9ToIZ79KKroe8phuurvBdPDU43Wys1GH7mJU4JUNNurNcqNaiXKVCDwq3ERw3d0Z4Ko240Nbjs7e3U0DXlW1x2K5nh9fJOu9SgXaZADQqhtIcastmeErMslhpcFpWdGjoD0yeU54hNqpl126YG5TIFanhwycRUw2hPkVEsNThsxS3VYAwA5LsV02fIOm1Tg3KZAjUo3Jxc1dCb7qky7UVSwziYGnqm5oZ1aaOI6keovxp0yxSoQeHm5KiG/nxPmXk/jhrkt1xbNaj+WIN55702qkG1TIEa/G9OjmoYqJvh8oofxFHDLJgaOjO1HztU3Ro2Qg2aZQrUoFAmc1LDyl4QVqKoQby07NVgKiqIEqCm2GTaaakaFMsUqEGhgOmihsFeIAZR1CCNuuzV0Fnf04kDxvo5yAaoQa9MgRoUGvYd1NCfh1KDMd+gpgZpc6JADUpjVgP1zspGqEGvTIEaFEJpuRq6wcxgvrPqqUFYwBSowZgjsLa26Rued1usBrUD4VCDQlOPXA3TvYBMo6hhEkwNxt+ObafSSHmsqjlq0CpToAaF2pZYDaO9oIxiqEEWdYnU0PePZLIgZz80Qw1KSxU1KBQwpWrI9gKTxVDDLJgazOq0qh9NtceqmqQGnefWoAaFHLZUDbPQapjFUIMo6pKpwTsTmauPVTVKDSplCtSgsOsUqiGXZQ4mN4j+pzyGGiTZPJkafMesegrJiiar4eJ8HzUEU4MkVyVTg211Yjoa3j3H9vIA+pGlIZatWlU1SKIuoRo8O9knQVoaGqQGjTIFalC4u8jUYLNpmI2WJvkyq8Nl12OoQdA2KlVDz0dJKwHGqhqmBoUyBWpQiElFarDYNJSd9thfL3+Nbgw1TIKpwWfMKlRLQ6PU4L9eUYNCJlukhrIlN88trt5uPncSm7Ia7KMusRq67mNW6yHGqhqnBu8yBWpQ2HuK1FASDowthdRddylSaKvBOuoSq8F9zCpz6wZrnRp8yxSoQSFjJVHDwGuo+s4rzeUdSdpqsI665GowH/jUc9tu9BNSg2+ZAjUo3GMkajDe7KeibhzzIVHjKGqY94KpwXjg09gpSTHqpKQGzzIFalAIpSVqMF3vU2GOrGt0QxQ12BYwHdRgfgfLtld9xUnypqvBr0yBGhSaegRqGCiaocQNgyhqsIy6XNRg7HZeluWY6M3aN18NXosWNSicSiBQw0j3nmaq043iqGEaTg0OmchhqLGqZqrBp0yBGhQKmAI1TJXb9DLZmg2gBruoy0kN5sRMX5qf6CWoBo8yBWpQaOoRqEFp1tNq9URSg9Vux00N4jGrcbCxqoaqwaNMgRoUQml7NWRKJ0RYrZ4sjhqs1pybGsxn666IMjmzTpJqcC9ToAaFUwns1TDUr6vlks6/IGqw2ak7qkE2ZmVsacgSVcPFD9QQRg02rbUT/7u2eyDck9zNw6hhHE4NfUnhdBRwrKq5arj4hhrCqMEilLZXwyRAB+9EEIyHUYPFHdlVDeYDn7KoLQ1NVYNjmQI1KDT1KKjBY+xnWL0aZuHUYAwSptZtEMNOwmq4+IwagqihvPHeXg2zAM39S2+W82hqKF95zmowD53klm942mmTGk7FZYoD1BBEDRM9NYi6mm0RvGgoNZTu193VYM5E9uxaGvqtUsP+eYwyBWqwYBBcDZMgHyaeGkoLLB5q6NllQCdhx6rqpIbi83mEMgVqUAilUUNphcVDDXYHPg1i5CDroobiS4QyBWpQaOrxV4PXbS2vgxom4dRgPP3m15iVsW9y0GmbGorj8GUK1KBwKoG/GvLGq6Fk/XmpwWLMaj30WFXN1FB8D16mQA0KBUzUUBp1eanBOBpxHcpk7l5vqBr2g5cpUINCUw9qcD2WxfJzl45ZzYKPVdVNDUXwMgVquHODcduUpqSGuVuyz08NxmMYLses8vBjVbVTQ/AyBWq407njdipBSmowPCBnPZwajJ2O88x3dLaRaghdpkANdy6jUVkmPHk15AOnxiJfNRhX/9yrzb2xaghcpkANdxaIIajNUcPNO524RF2+ajCPWcVpaaidGsKWKVDD3QUydGnqqVgNK5MlhFFD3yXq8laD7UOEQ41V1VINRcgyBWq4t0BmDhP/FatBY4MhUIOhh2B51OWtBvOBT1FaGmqohv2zcGUK1HBvgWQOCa3E1OASdfmrQV5wVh2rqqcaHMoUP1GDa5PSWD7Zm5gaDFHX0vYiBTX05WYYddquhuIo2HNrUMP9BdKTh9KpqaEjL2AqqEHehDXrtl8NxddQZQrU8GCB5OJ0d3JqkEddGmrozlTHOlqiBocyxSFqcFOD4QocoYabdyqOujTUUPKU8Qg5yFqqwaFM8Rk1uNUUVqQFzPTUII66VNQgy0TqjlXVWA2ByhSoYcECkTb1pKcGcdSlo4aepLkhzHdaQzUEKlOghgULRBpKJ6gGaQFTRw2STOSsk4wawpQpUMOiBbIuu+ASVIM06lJSQ8c+E5klpIYgZQrUsOhyMtwTh6ihLOoaB1RDpnP4TtvUEKJMgRoWLhBZKJ2kGmRRl5YajCe9hRyrqrkaApQpUMPia1rU1JOkGmRRl5oaLMeshp3E1KBfpkANixeI6FSCNNXQk0RdamowH/gUtKWh1mrQL1OghiULRFLATFMNoqhLTw3GA5/CjVXVXg3qZQrUsGSB9AT9t6HVsOdIYDV0BG2jimqwGLMKaNr6qkG7TIEali2QkX0onaoaBvYFTEU1lB/4NOsmqQblMgVqWLZABE09qapBEHVpqqE0EznopKkGwUtYlClQw9IFsmIdSierhp51AVNTDWUHPo07qapB/twaQ5kCNSy/nqe2Bcxk1WAfdamqYVzBWFUj1OBQpjhFDQ6L2bqpJ101WEddmmrIqumDbIIaBOu5tEyBGgwLZGwZSqerBtNZcN1QapjtsWtYivy5NV9Rg3wxG5p6VlCDKOpSVEPp9OU4ZTU4lCmOUIN8Med29bGU1ZDZ9R3pqcHizIZBympQK1OgBtMCMZwFl6MGSdSlp4axxVEN3ZTVIC9TnO2jBvFiHlhFtEmrwXAXHwRQg9VUdp6yGrTKFKjBvECsTiVIWg12UZeaGuzOcumnrAalMgVqMC+Qvk0BM201WEVdWmqwPAFukrQadMoUqKFkMS8/lWCKGkrbRnvKarA+N3YlaTWolClQQ8li7loUMBNXgyHqWldWw9j2oyd3ypN+mQI1lCxmm6ae1NVgEXXpqCGz/+yjtNWgUKZADWVq6JSH0qmrwRB1TVTVIHmyXZa0GhTKFKih9HLKSk8lSF4N5VGXihpEz8Odpq0G/zIFaii/05Q29SSvhvKoS0MNomdXhTo5tjFq8C5ToIZyNZSeSoAaSqMuDTWMZZ8+mWdeBipToAaL+DQvOZUANZRGXQpqyKQff5y4GoofXmUK1GChhrKHWaGG0rZRBTXMxJ8/S1wNfmUK1GBzLZWcBRdaDRMzszqooSTq8lfDUK7GWeJqKA7kZYp91CC7zUyM9fOKn0OR10ENhqhrqqGG7txh25Qnrobis0eZAjVYqcF8KgFqKI26vNWw7hRS9RJXg0OZ4hg1yIJTY1MPaiiNunzVkDmZIcCYVcPUUHxzfm4NarBTQ9d0KgFqKI26fNUwdVOD/oFPTVODe5kCNVimtE0FTNRQWsD0VIMpBzk3xRrqBz41Tg3yMsX5PmoQVbsMTT2ooTTq8lODMQc5NP7bUepqcC5ToAZbNRjOgpuihrJO5onX5143pxOMT7Pqp64G1zIFarDukZkodNy0Ww2y+Sf7z52VLf1JvExkA9XgWKZADdZq6KGG0nc6C6KGaVnA0I83ZtVENbiVKVCDfWftCDWUvdNBCDUMy9OMpu2K7oFPjVSDU5kCNdirQdqQJ1CD13MaR/VRgzTqslGD8Wv/VZzsmrYr66jBpUyBGgTzOMNgapgE+DCVqKGvr4Z1m+HKQawxq2aqwaVMcYQaBNfQNJQavI4kmtZIDcKoy0INmd2RDKbtyhQ1OJQpTlGDQA1ZKDXs+XyYvTqpQRZ15R7iu5th7EUas2qqGhzKFKhBsvMce6phGmDPmwlmksOrQRZ1la/Zoe1uILfbXSSrBocyBWoQLFDR8YSZIC3g0bSXCxIYEdQgirpKX824CelbF07HqMHlQDjUILh3535qGAc4dWRaMzVkmmpYt++BzqKMWTVYDfIyBWoQqKE781JDrt/P25esuxhqkERdufOHW9CvMI4xZtVgNRT756ghnBrM/fqlr7aiX3xffl9dqUgNPT01TCQbAWO0l6MGl+fWoAZBMnDiowbDXdAxU9bT2bVoqkEQdeXuHp4If24PNYQqU6AGaVNPJik0unY9GUzVqUoN9lFX7pyDXFh0mIYfs2q2Gopj1BBODfanFGaylew0BjSUrYU4arCPunLn9qlcnAFdQQ2ByhSoQdrUkwn32g6ZyP5ctngiqcE66spd92dTubZ1xqyaroYQZQrUIG3qyaQp976mGWRmUlZDX0MNE/lYRPgDn5quhhBlCtRg1VxT9mozRTcYzTDvVKgG26grd4xK1p20LVXv01dvL3nxtFVqCFCmQA3Spp5MGj/vzUX90pkxslmvVA2WUVfumIPsOvViisasHr/9ePKLf988bpEa9MsUqEEaSmcOW21B+T13+OnR1GBZwMzdcpArjqGMINP75tOVE7bfvt2+MsSnVy1Sg3qZAjVIm3oy8W3t6s5mu3MpiWpmnWrVYBd15U5LfOJa1rDORD7ePjn5+OZXJPH07aUm3rdIDdplCtQgvSdmboW9icW7yEr3LStVqyHzU8PEtXvJGMpYjlk9/vfk5O/Ht/75n8sdxOP2qEG5TIEapKF05no7na4Y727dYflw45L7Y0Q1WEVduUsO0qOF0vI3fGmGv+7+ydv/9g2tUINymQI1SJt6Mo9+oMlwSTo9G048bscx1dDzUINJvTMfJ1lNuP59bYa/3l7z14vr7cKbk5M37VGDbpkCNUjviZlf7XNvMsqz7PfmuZcN8nXbVqJlg4Yx1WATdeUOCYPSX1LfM8/7v5OTt5d/2f6vQHHy99Wfvj/59LQ9alAtU6AGaSi97NWkJ7I7sNKpgRosoq5cvrjX/ZxkceDT+5N/OzdqeP+rQHHlhsefrkOKtqhBs0yBGqRNPUtfbRzaDJNOHdRgETrl4i2ZTZHBON5VOmb1+OTk1S81vLj664tLN9ykGz61SQ2KZQrUcC+UnjuroTcPa4bld8a4aig/Cy4XK8WqNcG4Lys78Omvk4+d22r4729ulNEeNRSnqCGMGspD6czt0vVn2KmJGjInNZhu+hOv368xD/Mnnni/UA2XdYu3rVLD/hlqCKOG0nRi5hONeDDu1EUNpZ8zlzq3r7ClKxmz2r4pRfw2wmWS4dOvwsU/rVKDWpkCNUjv/ZnPVtudabc+aigLnXJh0TNX2dL1S9Twe7Pw5sWLF28+/tfk8PZku11qKI5QQxg1lBUwTa/WDeYGYwo+thrKoq5c9q0KDn91z0TeUsMN//yv01I1FF9RQxg19N3VIH62rrUZ+p06qaHkLLhcthfTKi6vmNXw6q4a/pufaKEadMoUqEHWmVP2av1ZfDPEV0NJ1JWLXCJ60MzYdcxq+7rh6Xeu4X///ipmdv656m9omRpUyhSoQXrrL3m1EDFF2WEw8dVgjrpySQQiO8HNmOYw9U1dbw5upSGfnlylHy/5eJWfbJsaNMoUqGEBQ59Rnu5E2wzTssVTgRpkbcs9ndMWfH43ly1OT+8XL//8edvUoFGmQA3SSkP5q410zbBeelutQA2yc6ENtpxq/m5ML/bxJqK4r4bt6/7p1qlBoUyBGqTZLotXGygmI+cWp6lXoYau4NTrgX9Lg2UmMjdFFNeDVPfU8OKmhtk+NfiXKVCDNNtl82pdtXmKic3jmapQg2lnn9vnIB3Og153q/E+/nh9bsvf29s3Vcs329tPrxqfrlMQLVSDd5kCNSzOdvmW2rJZrC1DVWow9Bjk1jlIl+fZuh749OLPeW+/dfHvzVailWrwLVOgBmlTj+2r5d5RxTzvdmqshsxSDT2PoSjVTORfJyfbj2//wZ8KZivV4FmmQA3Sph774+T85DAf9bw9FlQNy6Ou3DYHOVb9PZfuQy7d8OnPEXCPr86N/fWPrVSDZ5kCNSxhRaF3r7viHFbM8q7CFiesGnpWahh4HcCiUDm9xatLGXz8++rpNP979f7q7381S7dUDX5lCtQgvTXJXi1bd9k6jGUb7YrUsPTn5pY5yKHrL9pYHjb55vH7kz98evs7vGipGrzKFKhBemsSv9pAZof5eKWrtERDq2HZss/tcpBT51+0MRNpHrN6+mb76jE1Jx//+etW3qGtavApU7RKDbWln0/s9DDJM76tCqiBGs6rVhNqqEwPKyOTH+aT0RAtJKyGn2F+vvtza1BDZEFkwzyf3CHPL0+f55tpqRq+V6wG9zLFF9QAEE4N1qe/fwv1Dg4d1XCIGgDCqeGw+pu043NrCtQAEE4N+7Yr8aCoPqiJEeCgBkAN1/ywW4mnRUBcyhRfUQNASDV8qXwlupUp9lEDQEg1FFZDTuf7IdXgUKb4XqAGgKBq+FptE4GbG84PUANAWDXYbBsCbxrkbgiqKq43QA2W9cujoqiVG4ImRVEDoAbLtqfvRQQ+2+ciA29iuN4ANVg1FpwWUdi37W84/1ygBoAIajA3FpzuF5E4sgoqzgKbATUAarDZN/yMZobLjYPFSEf498P1BqihvIR5XETloCSqOI/wfrjeADXcygIuDCpOD4vYHBwbqqnfDwrUABBTDZct0w9KBGdfiko4+r4w6XAeRQyoAVDDg53Dt1s37LPvh0V1fD7+cVcPZ9+PYv1srjdADQ+384fH1xwdFJWzf3h082aOvxxGzIWiBkANgBoANQBqANQAqAFQA2iyy/UGzYEFG48tLjdoDjus2Gi843KD5rDBio3GKpcbNIdVVmw0HnG5QXN4xIqNxSZXGxBRAPEENJwnrNk47HCtAdsGYNMAzd827LJsaWoAeAhFihidkE+40ICQAggnoBV8YOkG5jUXGTSRR7ghLGtcY0BMAUQT0CJeU6cI1tDwjMsLGsyTTRZxkNLEGqMT0HCek3HQZ5OiJRBVwH0+POeiglbw6B3LWTGWIP0ILUo5bLGktSqWJBmgXSkHzoRTmZkgyQCtY42Ug3fBkiQDtDLlQAeUX5KBvmhoK89IObjzjiQDtJiXpBwckww0P0LLowpSDi5JhpdcOdB6npByEHdFc9VAEtA7LWKDJAMkwypRhXWSgYIlpJVyYNFbJRnoiobkUg6Ma9MVDbAw5UAh0wyj15AqjGsbYPQaUk45MK69rGBJkgESTznQO01XNMAi6J1+WLAkyQDQYVz7fsGSJAPAr5QDvdN/kgyMXgP8gXFtuqIBFrJKyoHRa4BFUUXyKQdGrwEWknbvNKPXAEtJeFx7g4IlgCnlkGZUweg1QGnKga5oAFiUckitkMnoNYBlyiGlQiaj1wD2JDOuzeg1gCzlkMS4Nl3RAGIS6J1m9BrAhZaPazN6DeBKi3unGb0G8Ek5tHRcm65oAE+etzHlwOg1gD+tG9dm9BpAJ6poVe80D6QCUKM949q7dEUDqKYc2jGuzeg1gHrKofmFTLqiAUKkHBreO83oNUColEOTC5kkGQACphyaWshk9BogLI0c16YrGiB8yqFxvdOMXgNEoWHj2oxeA8SiQePajF4DxIwqGjKuzQOpACLzpAEpB0avASqg9uPajF4DVEOte6d5IBVAhSkHRq8BYFHKYbOeSQZiCYCqUw71G9emKxqgDtSsd5rRa4C6pBxqNK7N6DVAnVIOdSlkkmQAqFnKoQ6903RFA9SPynunGb0GqGfKodLeaUavAWpLhePajF4D1JmKHnXFA6kA6h5VVJByYPQaoAHEHtdm9BqgIUTtneaBVAANSjnEiioYvQZoWMqB0WsAWJRyCD+uTVc0QCNTDmELmYxeAzSVgOPajF4DNDnlEGhcm9FrgKanHEL0TtMVDdB81B91xeg1QDtQ7Z1m9BqgPSkHtd5pRq8BWoXSo654IBVA21AY12b0GqCNUYVnyoHRa4CW4tM7zQOpANqccnAd12b0GqDlKQeXqILRa4AEUg50RQPAopTDFqPXALAo5bDD6DUALMByXJvRa4DUUg7v6IoGgAWUPuqK0WuANDGOazN6DZAuS3unGb0GSJrFj7rigVQAyGGDcQkAWCSH17cSkrub9D4CwH88X1274iUnMgAE4//xzOQh0km9bwAAAABJRU5ErkJggg==;container=0;" parent="ATEDQ_KVCxQ0XwKxGGRF-76" vertex="1">
          <mxGeometry x="9.52000000000001" y="10" width="100.96" height="40" as="geometry" />
        </mxCell>
        <mxCell id="ATEDQ_KVCxQ0XwKxGGRF-77" value="" style="group" parent="1" vertex="1" connectable="0">
          <mxGeometry x="160" y="-40" width="160" height="60" as="geometry" />
        </mxCell>
        <mxCell id="ATEDQ_KVCxQ0XwKxGGRF-54" value="" style="rounded=1;whiteSpace=wrap;html=1;fontSize=16;strokeColor=none;" parent="ATEDQ_KVCxQ0XwKxGGRF-77" vertex="1">
          <mxGeometry width="160" height="60" as="geometry" />
        </mxCell>
        <mxCell id="ATEDQ_KVCxQ0XwKxGGRF-51" value="" style="shape=image;verticalLabelPosition=bottom;labelBackgroundColor=default;verticalAlign=top;aspect=fixed;imageAspect=0;image=data:image/png,iVBORw0KGgoAAAANSUhEUgAAAO0AAADVCAMAAACMuod9AAAAe1BMVEVovUX///9fujdmvELG5LvL58FbuTFjuz5cuTNhuztlvEBZuC76/fn+//34/PZsv0q94LHq9eZywVKq2Jry+e99xWHS6sqk1ZOHyW643qvZ7dLh8dzm8+GPzHjc7tWDyGmUzn+f04ym1pV3w1m53qyy26OTzn2Ly3OZ0Ybm5bCAAAAOFklEQVR4nM1da2OiOhDFoJCA72etW1vXuu3//4Xro1ohkzBnCMr5eO8WORAmkznziDq1sRnv3qdRs5i+rLqT+rca1fz77S5LTBo3TDaKstQko9Wfp7LtTnXaONEbYpMvlk9j2xup5l9qEZnevz6F7eQ9eTTXM9/8Y/h4tuM8ewLXE1IlXs5Sth/6SVxPyGcPZdvfmyeSjSL19kC2w+kDLTEJ8/4wtoOnkz3S/XoU25fnLuML1N/HsF0/00D9IhdYZpztpB1kozgaPIDty7P22TIMvg/BbF/zZ7O8IZ83znb6DHeRRgbvuijbsXo2xzvk6AkBZNtvw+ZzQ7xvlu2uVWwjNW6S7aQ9JuoCg+1CGNvW7D5XmFVzbJfJs9lZ0FBsDmI7as/uc0X60hTbdZt2nys04i4DbIdtJBvF02bYfj//VEtBfTbBdtM+E3WB4scg+WwXbdt9rjC78Gx7LTnWEsjZggmbbQt3nysydkiOy/bQLge5iIS7CzHZzttqos6Iue+M+e8+2rn7XKHWIdluA5994tBGQPOCNjy2+4C7T2x0Np2mOqghSD/Cse0G3H3M6PN8bJkcspB8k00otoOAt5X8hkUHu4APMWMFbThsZ+HYFgP844CWXvfCsJ2EuyfdLV76EO5YFceMoA2D7VcwE5VawlxA88eRDqrZvoZ7tbZD+xrw002qd6FqtuHEgWxhXz2g+51WSweVbAOKA+ZgX34X0EnLt3XZDgPuPoowm+uA16+WDqrYrhpm2w0Z7FJd+wcQtkHFgcbZRqpiF6pgG1QcaJ6tqUjG8LNdCjaITGmtDGVq2WzT4yW0ktivCunAzxbfH1L9r7vd9P6OCBZMtpn+WE7mk+VOwLdCOvCyxcUB/XHd4sd2fiuPrXq/XmL4D19a/qCNj+0Q/bE4uTOKk6xMl8VW7e7+7zhHF5dfOvCxRcWBNCp8NROLCINtaSluInQ1ewVsD9s/oINsFv3iBT5LTDhsyyGXIZw/ajzSgYctKA4QeaWl8BODbbqz/sUXaDx80oGbLSgOaOJHVsVlyGCriSyZD5CuRzpws8V2H03t673ifXLYUssQjOhk7l3IyRYLK5BkO68w24x0/XbY23UL2C62c+gHCtvGL5YwW4c6iS3meISyhcQB44jmjov2lME2cXxzb5BldkoHDrYb5OyTujS2UkSLwda47hPbIBLHLuRgi1w8HvXpi8xL1oXB1qlfDSPEaKbfCFtIHEhc54630iPjeBeKiOac8QcyzDktHZBsB5aL6yPrCltbGfksP9np1ncR144K+LnYIuKA03WZWZ8+7wyUuBzdb8RS0dIBxRaRpl1njsGLvWkwz7eJS69DYr20AaD+4xuw+zjctMmIuAY3dmH2tEmFNgoqnEuxRcQBh1HZ6nqRmow2fJD8RgnYBFtgwTjW8ZKuVeVH4WJDLxnEd0//cdgi4gBt6JeOFQfEHGN6W3Ndmb45Wzqw2PaBj5bW/501NEiENTYkXcSkEAK2xRYRB8jcDrcbAMWT45gyVXPk5ZbVYpstIg6QiunQ3SABi56npKoDKTVp+fxYZvsCLBVF+cd79wVArYA8WUEnUet1lNgiZoDc0XwlNKgyQnpV0C6Ulz7+ElvEXdHEq/U+LVgHKt/sCeWDlRdZKfWhyLYcE/WBUpg8H20kYEumBUFR7qQY1Suw7SPHDEpg+ue9E1zjo1w1KMxdCtoU2CJ1a1SWQ0W1qkDRpB4pFMYoSgf3bP9AmxlxDq346gVsyx/eCT0oJFeQDu7ZviMPLYPvXKRWE+4flohYOH/fsYWkacpGVYWOJGypLHpMjbv3uO/YQnEubZ8HKo8TokyExNZKsIyB++f1yxYSB6gAdeVxTMSWerli6eDGFhMHiIVc/cRlWSZEQB1byndv5sYWqxwgtLjq9BsZW6LEFrPKd9LBlS0U86G8RoZHJ8wgsuunIe8xulMOr2wx5YEQDRkpfEK2RPOsPZaOcZMOftiC0jRx/GHcgJBtZp/8VmA2xjUyemE7gHYf6nFzggrSXDjrUI5+uDfp4MIWrRywE585dy1la5tEOPn/RzqIuC+mgNS66w/Gdy9lS0SE0ESbOP5li0TyTiB8dU6kV8qWkLAgl/6Ei6U5sd2i68J+2KzVIc5hza0/w6va1fyHLWjPqaznJeemxWxtp/wTThI/SweRpG7NNsms8lwxW/vpokY5uugakaQoxJYtWCtLzNbe3jd4duupG1Ukqfexc7gWnCcmZptZApakOV0+P7IVtLHILC+ZZSLlbK1T31BQkmXGR7agGxVRh1te8ETMlhBOBWyPzyxC83LJH+cdjmtUUVi+o6SWRfUjQdGGXWXE+4zkbI316UjKlPQmmuGfrc2Wd+CUs7X1NUn5n+pG5RQuBh7P1n63ErZmFsGOVFi2vDq+MO823UUj/K+kbKmUTd653H63krrd7EvwR8QOxGu0RSWFsxw5osGsxCbHC8EfRcSGwDORdhCA5wHai2kgKfiO3wV/RBWh8FwUO5GWVxVp+1KivjnHdyv4bolkZ2bIspygyjx+2U8Jy9/9wfG7Fdhk4rzJLQgv/iW3P6R9BhJ1F0i/o3+CClv7fMs9Xcf3OUyf3Fu2ty5R2W46k/hSp9NE+Vmzf10vlmcb1+/t+X9jSUGi5l6mGwmiAET9GXACy5RavL3tFTCRRZd/Do4bXi6zkZyBqCAgFACJU2iiELFPS6xNpIaS8y31sEP2rSjD9sH6IpO8OJ7mJfdpB6YkHwQX9hYgCEudH5ooLkUYyX5zfaSJEoGxxEid41KSRjSprSA310iaqMnl6DDWZd6E8WSqR0rYxhX3IPJMJLbmJ54sMXD2YIR+U2yJhBaJ33jO3RPpQGRHmKYaDhPKOK6L/OTJizQ+siADyhsEQMzXgBW+e40P12+paILkHhggyi2H+O3Gl0RFmTZPpn4EbKl2B6JURmAQ77V5OO+Cri1qop80VYSDL6Ji3oWgF3RuF7AIrF31z9ivVqB4Xau0ZPlSEXXqE55M/L9CzJrAT3vlfCk0F44u4QveZTm21USmnliAlQuHd0im2o6Ent9A1W3j54/f6gRhDmvkaBkS1lCRHRphz4/KYcV7olJNfOFn5r3NlFjH+D5H5Sfjrja1CXV6AT0qshslvHro3HO85R1ZfbsK9nY11ekDf7X32dzimpHI1ewn1NxJuh0M/NW6akZwv57sTTGYBrFU9BRU3Aty1gPBM8rosvnhKADddEH1XsI9XHetF1bHd74W2URnHtWmm+7JRlN/4dxVTx0fVKN5Bj0nYEh1u0BgyDcrOEKXvrUa9bcnOHpjDhe1TJVyjPKF+4aXW4/XqK0+Qzu6ygjabN6QO8bO4T3hK2qrobr5M1z9lg7SafSZq6kRfqC0arTq9ES43JyrIfUmFq1mNXU8vgE+nMQKJ9Xqd3G5pKtl0OAb7qIaZe5R8l+w5avudwH1MrnA2RCqs51iX1qsF87OkzP4oyVC/PX61FxABPNvFzP8pRKryD09Q3Da4PSpkehCno7Ug0PKk6WPXD3dcQUDiqjDcc3+Uj93GnvGQAzGI135daTJ1NePfkJ2FveD2V9KEEzLRt4JgK/fRrnV+DjV6c473mcOSfkXkE106vaF+0E69Q88HCx3kVap5QtlqdKj1dLfeH8uGIxFj5Sp3fPvRrdypsmku3tXuVbKnKGUzs37qlc5wHaeCQ4Z9u7jZAv1c/xBFrHm7s43y+56fTis193lhjV67A+QfPN7N0A/R9Egr8ywRmuheJWQdY35CtCH9Yo45wybAjEWRfVcI9xC9Ni9we32SbGTqQ+uwUhB+iffoN75s2gZmMMN7X9uw9W6Nkxv7BtS4/YiYfSULOKD98aWjlOLk10grv0PqYbm7PobrKf9L0wU5PX2jDS25RmHG2xewS/i5I03w9ODyYs80iOaV1BDr0v1gTEK0I3hKpEHLY2jC3gFW0ku7+0nzaeYb/9Qa36qcM5IvXwvFa8dzd/9GM7SetFZ3/j5oPOBCoiNXrGHhV+x+c7riWbu3aeKbe3EAqMXXeAFz8f76nN/BeSznwLMfcyUfuux/Kt590uLDgAF1JnrJZrZZt2AShaHrfcVD19n00ToOBXhnJ3AYRsoxzoz2ixW3S3xkufb8W6vtCDuRIFKrwLYhpu1GKdK52r/tputx91erztez76/9jrXRhB0cqHmrMWgczSjc23MKUZzgjGpIETihXeCGYdtyBmpTaP+jNSQ82+bRl55HHnkbOOGEWK2cUNJ1g0gyNzqgDPJG0WYmeQh5803iJge9wazlUgHjwc9EEjAFmvP/Bw4EyJgtiLp4MFIKqevs9niiUqPhkscELEVSOOPBWP34bMVSgcPg1MckLFFOxY/Fs6ZhUK2spYLj4JbHBCyrR+0aQ4ecUDKViwdNA+POCBl20hNYhD4xAEx201b3WXHhOB6bBsrFa8J52jfemx57dAeDb84IGcbvCYxCPziQA22bdyF+LsPzJbb6+uB8KTP1mXbYHsWIarEgVpsw0kHgUA0ogjHFq59axiV4kA9tv1WsXWNkQ7Ftl3SgaegIQzbNkkHWbU4UJdtxYTBR4Lo1xOabXt2IWpIXnC2klEBTYCuHAjNtrNuB90ccZDlbIP1AagFhXlRcraB+gDUgnEUJIdn2xlOn32wpzsmNMO20xemwIeCgnfaOmzrVYrXhrhaQ8q2M86f9fGmRE+6ptl2Jgv9DCcyyz/kdSlytp1OL6qfholy1fs6VQt12HY63WntFFsAsckX4kUcgG2ns/3OgmYqupClKhn9hbO7A7M9YjPevU8bJjt9WXXrUj3iP7ZavqFNdSt0AAAAAElFTkSuQmCC;" parent="ATEDQ_KVCxQ0XwKxGGRF-77" vertex="1">
          <mxGeometry x="10" y="12.029999999999973" width="40" height="35.95" as="geometry" />
        </mxCell>
        <mxCell id="ATEDQ_KVCxQ0XwKxGGRF-52" value="Spinrg Boot" style="text;html=1;strokeColor=none;fillColor=none;align=center;verticalAlign=middle;whiteSpace=wrap;rounded=0;fontSize=16;fontStyle=1;fontColor=#68bd45;" parent="ATEDQ_KVCxQ0XwKxGGRF-77" vertex="1">
          <mxGeometry x="50" y="10" width="100" height="40" as="geometry" />
        </mxCell>
        <mxCell id="ATEDQ_KVCxQ0XwKxGGRF-80" value="" style="group" parent="1" vertex="1" connectable="0">
          <mxGeometry x="340" y="-40" width="160" height="60" as="geometry" />
        </mxCell>
        <mxCell id="ATEDQ_KVCxQ0XwKxGGRF-56" value="" style="rounded=1;whiteSpace=wrap;html=1;fontSize=16;strokeColor=none;" parent="ATEDQ_KVCxQ0XwKxGGRF-80" vertex="1">
          <mxGeometry width="160" height="60" as="geometry" />
        </mxCell>
        <mxCell id="ATEDQ_KVCxQ0XwKxGGRF-50" value="" style="shape=image;verticalLabelPosition=bottom;labelBackgroundColor=default;verticalAlign=top;aspect=fixed;imageAspect=0;image=data:image/png,iVBORw0KGgoAAAANSUhEUgAAAOEAAADhCAMAAAAJbSJIAAAAh1BMVEX///9tsz9rsjxhrilosTZpsThjry1grihlsDH8/vvy+O77/fn1+vL3+/Xt9ehvtEGTxXV3uE7n8uGMwmzg7tjB3bKp0JPS5sejzYvD3rS82qu216Pb69KKwWmdyoN7ulOCvV6Xx3vL4r642Kau05p4uFCFv2PN48Jaqxl/vFpTqAClzo+fy4dHEDMlAAAP0klEQVR4nNVdh3LqOhAN6lQXisH0fnnw/9/3JBkCuMiyLdvKmXtnMiEhPkjaXW39+akb/d7qGp7u+/XW6TzhbC/uY7acBv6gW/vfrxOD1XR28RAkjCGMAej8AgCAEWKMELDdhKte209aAoPVcswo4cw+eKUCYEYoGi9Xg7afWR/94L5lhOEcal/AiJDz/Dps+9k14B8vkKC8hUtfTcToZbZqm4ESk5kDi61dkiVxZpO2eWTA5/TKLV6cJPVOfttsEhhMz0bovUjC7aLfNqdPrPaEGaP3JMnYxprdet3SSmcvCwieD21z4+iGDjG8fG8A4oQt8+svoentGePI2KnFA9k9IlYnvQgMLdsyXsMm+D056j1RYJRf4NW7P785Ai2ZszVoEI3GsDl+HSFzdvlGgP9vZopfd1aPflABw02eyHGRY4jgymnoAH4D4avysXqwA41Ye/09bXSDvgGoq7pEzlEHnQwQDDBqh58AQtkShy9hBxjYpo+2FvAJuM9SjhvxyVfepr7Xygn8BHLSDXIfylc1NWcWpi0voASgqSxcKd3BrRLBPWybXQSyTuqNCY1eg6Py/Aa31nfoC8hJ8NiJ3cX/s2lpghPUuJLPBoAx1bggfPlW/AnxpSzBhQ1H8APwS/P1OUE8lmcRlvRInmjblOIgm4/HE5qCK4orP0esnF/gQdomlAQb/z6eEDNoz+1lsZT7MgTX1siYT6Dta0N6/AQREfwQ25QVvy93dy3aaSpgJzJT72JzHsVXB/4VKXwP7t8sJSgoioVb8T0KzvJZB3ybontBgsOztQQ5RdD76YvwFn3ao2tc2PoeehapwSRAp+fyFWAv3RGKbVrI+u7bTVAEAISaP7+ed0RfR1IXtgqZb5C3EcfFKihi1lz+BEH6YcIt+RNT/XCya6UejIN9Ck9xTdQ3a+Z/giDefT20A/TNmqkl10E1gPNtas9RBwA9givrjO00ABa7KgZc6ROtyGOvvqCZScC4I79Ldb01tivCCDQpVMbcrNlpENz/DT2xSD75lMtHmn8NXvwJKUPTnDJ6+sL/E1IGpnuduL5Am9RX3ug6f0HKpG1RAaEvvByGm79wCFOETAShL3LcpsEf2KMAZl7l+zDPbdrPzZhsH5gplPqFG26uiqFr/x5FnirpVtwvoOL1q/2KgoyV/rSV2nDrAuv3aHrw6YMCU17077bvUZzvLrxg4ePPgPW6nt3yb/BHvogoayPv7Da4AZ3n8osOIsw4iAcLAxQfQEAr60l1EDs2ixlAc5OGnljzg7hOfeVos2cGYe2IhNCIJO2FvsUEAc3MM0kiUyNarCmIVyTvUMSE00zTnrViBqGCCQjbdJ/izNIlxHReNDjPqaTEoIZ2KntM3eI5MiKiTxO/drJxCTEdl0lV69EUZ03fQoKcX8myEuGsiQeDQ+tUBYJu6VRDF3fANvY9y8wZwMi9Qo6asF3YtwUUWKUqEPSqlXal6PyxPZcKTNi8alXXgMZ1/sgW3wUmyFVnrOuBy0385Re2QlUARKh7NVPnJETNl1+4dQ8iRgRu7+bqemRA/+PDWrUoZwBGjLDxMjBarx6wb1HTgh9fNB1gjEDouctrBb2QgdG357tbv7YXbRSwbKQgWilAhjo3d7Y8rEY1ld51+bFDb6dOXe4Z2RuC86GUdbzb2N3PT8fp4RBMRvU3xLiBT6tmb1oZAswYJJ3zeL5ccD5t9EoQBw+/PseuyVMoG12cN2Hgt9vQQ9jZv0E2c5IUMOi4oRVl5jLt5KV9DPlnMKO3ozXdEGQ8/+U0NRHU5qt3WVjVgYW+7Ta/uk2KiXe0rY8OX7dXGdS0qjZE1G2v6UrmvhG3padb2K2mKxCZmzdJ9JH52c6FZRptrEoxUQRn7Z6+jJyTZ863FOtVjiGGj5alyzVzDQ+/NULljyGAl9aVwzrTXhJansmAeOl7BXLMtmkog1HcofaGCFKgh/jqXO4YAvpojEc2Ztn16UP0LEfslnPmI2xDV67uP8VTCIUoHBmTUkYpGVvRW21KFbewLd+cuF/S1w1NNC8wAKDK7hIqHw4ixVgQgLYvYiQW/1Spso+oslSk1xQliFvXEU8AZXmM8JCSVYmLRVT1ZwOmcKd6WcYugp9hUUHzqtxsH11AMk02gYVguChss9lD8OfEiFKgi0AwOkrPaQGAjjUEe1CdJyvNNnSSS1mAILblDIpM35wsRaHp8Vz69/VBbZGioi4LIPVPSIabn3sRZUFNxL0MwQN55U3Csc83cpELPrPEkhFYss/i2FSIhAywFs5vXcRqGVsFX5/sNOAnBlC25HHymT0BkDViVFpiNO9yI1Ogtj/6ezSzSKUFhCSZTJJAXzD09BnmKJ9GIcruSf4HXpAhsWiPisiZRnMIwdDRZsja7gb7AdHMRG2SSnQLMcytd2sQspmJxhL2CzHMLhVrHAPRVltjCSNZqnsOtWqHG4IoCdFq0SL0oTbDXN3THMQh7MS7maViFGl8vSWs1qzPJA5Ue0uJqy+46DEk1ljcE3lhzyr5if0sv1uAsRZD3UYT9aMnm/cjPeND3IDxQ4th1Z6ZxtCNOj0QvWu4cF+gmRbDKg0ljSJqeaTbJkkE1dBJh2H5bouGsZceF+1mXsJ9waY6tyemoV2bwDxyfCbamWRBJNGw4Oecz1Cjj0YTWEZ+T6RTYykh3Bdk9bPOveNbogzDiCAA2jl/wn3BRUh+0l6x/md1YfoMcxYICol4BRxqlHPpqdeasXgSZPqB54GQS6j/c8xliC2YjfYiWOQS5z9bmB/yfN4ZBbWN4kWwQwvsJ5GcKAzY3MxLCwya1xnskCLPIoJrosyylxd7Yq3ffY8vgsW20wZLk+anmydLzUxUqID7aw0ALlRsIhIVpLGyzVGItKYH18X+9xgVvIaLlRdB7jyFaGKgQhW8uzSTYnpZhn5lbmJOeK1dUTp4NzFGBdtYy8CozC+9qtUFzmsMVid88LvB3n1mNSHS9aJmrTl1eYVbKxvE4d3qHrCiwWeRrvd8ePUatqgOZx8Zd0VUvYRofP0q51ZXj7bmze+uP2yR4nEvefiemk5dXNkWQ9/5eCxSPPgsk9meJrW6xrmlXfo1bYKVkHaS4NP9MlAeRCMjlApj8yn+UF44OwUiwvh+dqVVg4zNMtOH730eHLQr8Rayl9Bvvo3yEqzvFjGG8GseCt6WuZ/KBAz4smOVB7HcRIwKGK6/Hgc7ZWq7pZJ/e0H7Kp3ftNV2/R6ZXDJRUCY+s7eQXCs0YrPB3+7m+9PGJfPopGj5KOVWpnqrukiaxpV9i4SyqZ7yXvEZT1KaprCxbMSBGxuMWTqXVZaMok+3nEpfkKbCvyGMHRZ0LtlAIqpr/srNXCq2aUNm2yoxlg/tyroxo5zZr6FBI0XdTCPqohffoPwBywtxWecUu9jusrdpA8K0O4tvUL7Hyn+wkX6PJRCrKvRqj4+GOPnXYQVjMepQyr6/OVRI05rDh4dOcnQyyOpGroNobEXCN6FIFa41KfHgpUyZwJXkd1QElHDzqmxTVX1YJXQXnbQpGuhcRQUHcjumBD0VxUElB+7lob8EqaO9SbU948n3TOl8qWjOWkumgv+AqfwAraZ/p9FmpEljQdUX0nzo4rCD6ZdS1KkWjx1Eb5t6q1UUPCOzFb/+DGUNsSFuxTP/nK2SuiYThcKA5jKge+GNZH2WAFa1ECMxk3WpVdwSTTm+e9NL+umTYOeqp+E11iEj5Ua5iAbsmlF4gyz7UwRVzJgnnmMdMgsVFMZpbn1KHvzllmavnlhAr3rKx2v+T2ahwkq1iBV0Yj+YI4iUgVgMDTieX8WiIDtMpaiBAqhk6pcfjlGmaHm9ObwYOAVdD+QsoXrUWhmf2+iwR6qj9wQDRlKQ18/PUXndU4WhCpbmDYO7p8FONrgxYvfeX0aZsrJUWfasH+EaBKcdJeqT9wSmGzOeruXr0XNqCJWdXLQoDoPZlumxEwKmVC/rFLyHNebEUtWN5/Mo9q6zG9RlJ9ZvbSop8DdrKj+hQT3/IbvhR9dfbBzItNlV62Udx/ItIvMNTE/5jKlziPixu2BahF0HMLox5/6Zv8WHRjLsRN2QB6EvSdUdHeYOFyrFuodg4i0NZlaP3/tOyzGY0zYK/AqHUbC8dAptzOgNGF2bTAbsfQ4O10oMyx1UwgX8aBW6mMuUwv2VAYLe0mggJCAf+0fzIps/Og8Rwko0jwaI4Lthd8H8U4NrZ7nX0jaZrx64mw7yxIId+smLxkdYis05M54QP3x8BzsKOFvMDjvGDDqnGtJwp+h7rwGngH27NNZ2FzNyCesIfBycuEQs1ndlnTyKiEEKifKeHgOXLHB/qKWM/3pLeOsKJtj24/M8MNkEo95ocvQ0l1cevXrCx/0wJRhQOHEqZtoQ93cpDhoDu/nR8+o4egL+HKVsJFA87Sb8VDRfw5MHOSO7Ob3xoqaYY2+6TXeWl3HLb94nmXw7aoeKkTRcsqzragk9CndZcqCco+zy+rASAcQgwxWACXEP9RQrDlenc7Y7kpRztf7Ork627kvz52DG3GstkcZenttAs7Y7iVEkU1K8wYkmb5jRcQ2r1/WD497Lu7/g8iWgkZ8/JY4fC8UhuD6YmQ7zRH8wCcKZ6xEdE79c9uIT0nxLG5X4abkCIO5D/dEkmB7ve3e83t22XoTzbXdZj939Zj47HcNwujhcg9Vk4vsjjt4bo5HvT1bBYREu5+765jDIqWnezSo2yRM3qbSozOX9x8H6NBsDKuwdxp+KA3wBy9Ek0XASOZ+EA3Lw34DyHxVfQSjWi78BEr+vw+z151lFxbSgqarmMxEOoOI3YWMApLJhMaVpiQq2zL8Civnb2jj8S8bEDUxTMAJgpgr78F/iW5aMZAXMkO17iFsMPTtGJQJkzPoNYnvBjjl72DFo3vtf7/WwYgnRzaiR0Xv7cAdrKwiyqpkFcQz30i7rjmbEii0Kayj83PzbXm4gI1mrYQBacMazHha09SGJT2BUU/3AxLFiATvsVlsbzu7YgoGzgNZaTRcmigaaBkY19+nwE4UfzYKs628UO2txGXFKcnMNmLS2jOTSVJXZshWtj1CDfeN648a3KqD7ZtvGBYngVr38yK35jmMha07/M6eVbun9e0NGKmuvJ17vkZcba4IfOrXZt7E3p7VyBAwtjV50S2AwSwtYGuJHHCs6wfenTi36EVHPnmkMgasoFCkFwNjGho6Ub/RCL6fgoAg9BG+Lto9fCvxZxwRJwHdnXVkO1bGadfSToNOAGfGW1tKLMFnqpuknF4/AcS35U8YRpesXyc8EmEG0W64s6AWrjcEqdAGVgVwVUQCwyCbzNouJhZIlH8PJ4bS/OUSEh1EU3X1HhRnj3+9s3dPB/0tLl4rhaHWdLk/3x95dX15x/eMhmPSGDXD7H6I+843/kuBPAAAAAElFTkSuQmCC;" parent="ATEDQ_KVCxQ0XwKxGGRF-80" vertex="1">
          <mxGeometry x="10" y="10" width="40" height="40" as="geometry" />
        </mxCell>
        <mxCell id="ATEDQ_KVCxQ0XwKxGGRF-53" value="Spinrg MVC" style="text;html=1;strokeColor=none;fillColor=none;align=center;verticalAlign=middle;whiteSpace=wrap;rounded=0;fontSize=16;fontStyle=1;fontColor=#68bd45;" parent="ATEDQ_KVCxQ0XwKxGGRF-80" vertex="1">
          <mxGeometry x="50" y="10" width="100" height="40" as="geometry" />
        </mxCell>
        <mxCell id="ATEDQ_KVCxQ0XwKxGGRF-78" value="Spinrg MVC" style="text;html=1;strokeColor=none;fillColor=none;align=center;verticalAlign=middle;whiteSpace=wrap;rounded=0;fontSize=16;fontStyle=1;fontColor=#68bd45;" parent="ATEDQ_KVCxQ0XwKxGGRF-80" vertex="1">
          <mxGeometry x="50" y="10" width="100" height="40" as="geometry" />
        </mxCell>
        <mxCell id="ATEDQ_KVCxQ0XwKxGGRF-79" value="" style="shape=image;verticalLabelPosition=bottom;labelBackgroundColor=default;verticalAlign=top;aspect=fixed;imageAspect=0;image=data:image/png,iVBORw0KGgoAAAANSUhEUgAAAOEAAADhCAMAAAAJbSJIAAAAh1BMVEX///9tsz9rsjxhrilosTZpsThjry1grihlsDH8/vvy+O77/fn1+vL3+/Xt9ehvtEGTxXV3uE7n8uGMwmzg7tjB3bKp0JPS5sejzYvD3rS82qu216Pb69KKwWmdyoN7ulOCvV6Xx3vL4r642Kau05p4uFCFv2PN48Jaqxl/vFpTqAClzo+fy4dHEDMlAAAP0klEQVR4nNVdh3LqOhAN6lQXisH0fnnw/9/3JBkCuMiyLdvKmXtnMiEhPkjaXW39+akb/d7qGp7u+/XW6TzhbC/uY7acBv6gW/vfrxOD1XR28RAkjCGMAej8AgCAEWKMELDdhKte209aAoPVcswo4cw+eKUCYEYoGi9Xg7afWR/94L5lhOEcal/AiJDz/Dps+9k14B8vkKC8hUtfTcToZbZqm4ESk5kDi61dkiVxZpO2eWTA5/TKLV6cJPVOfttsEhhMz0bovUjC7aLfNqdPrPaEGaP3JMnYxprdet3SSmcvCwieD21z4+iGDjG8fG8A4oQt8+svoentGePI2KnFA9k9IlYnvQgMLdsyXsMm+D056j1RYJRf4NW7P785Ai2ZszVoEI3GsDl+HSFzdvlGgP9vZopfd1aPflABw02eyHGRY4jgymnoAH4D4avysXqwA41Ye/09bXSDvgGoq7pEzlEHnQwQDDBqh58AQtkShy9hBxjYpo+2FvAJuM9SjhvxyVfepr7Xygn8BHLSDXIfylc1NWcWpi0voASgqSxcKd3BrRLBPWybXQSyTuqNCY1eg6Py/Aa31nfoC8hJ8NiJ3cX/s2lpghPUuJLPBoAx1bggfPlW/AnxpSzBhQ1H8APwS/P1OUE8lmcRlvRInmjblOIgm4/HE5qCK4orP0esnF/gQdomlAQb/z6eEDNoz+1lsZT7MgTX1siYT6Dta0N6/AQREfwQ25QVvy93dy3aaSpgJzJT72JzHsVXB/4VKXwP7t8sJSgoioVb8T0KzvJZB3ybontBgsOztQQ5RdD76YvwFn3ao2tc2PoeehapwSRAp+fyFWAv3RGKbVrI+u7bTVAEAISaP7+ed0RfR1IXtgqZb5C3EcfFKihi1lz+BEH6YcIt+RNT/XCya6UejIN9Ck9xTdQ3a+Z/giDefT20A/TNmqkl10E1gPNtas9RBwA9givrjO00ABa7KgZc6ROtyGOvvqCZScC4I79Ldb01tivCCDQpVMbcrNlpENz/DT2xSD75lMtHmn8NXvwJKUPTnDJ6+sL/E1IGpnuduL5Am9RX3ug6f0HKpG1RAaEvvByGm79wCFOETAShL3LcpsEf2KMAZl7l+zDPbdrPzZhsH5gplPqFG26uiqFr/x5FnirpVtwvoOL1q/2KgoyV/rSV2nDrAuv3aHrw6YMCU17077bvUZzvLrxg4ePPgPW6nt3yb/BHvogoayPv7Da4AZ3n8osOIsw4iAcLAxQfQEAr60l1EDs2ixlAc5OGnljzg7hOfeVos2cGYe2IhNCIJO2FvsUEAc3MM0kiUyNarCmIVyTvUMSE00zTnrViBqGCCQjbdJ/izNIlxHReNDjPqaTEoIZ2KntM3eI5MiKiTxO/drJxCTEdl0lV69EUZ03fQoKcX8myEuGsiQeDQ+tUBYJu6VRDF3fANvY9y8wZwMi9Qo6asF3YtwUUWKUqEPSqlXal6PyxPZcKTNi8alXXgMZ1/sgW3wUmyFVnrOuBy0385Re2QlUARKh7NVPnJETNl1+4dQ8iRgRu7+bqemRA/+PDWrUoZwBGjLDxMjBarx6wb1HTgh9fNB1gjEDouctrBb2QgdG357tbv7YXbRSwbKQgWilAhjo3d7Y8rEY1ld51+bFDb6dOXe4Z2RuC86GUdbzb2N3PT8fp4RBMRvU3xLiBT6tmb1oZAswYJJ3zeL5ccD5t9EoQBw+/PseuyVMoG12cN2Hgt9vQQ9jZv0E2c5IUMOi4oRVl5jLt5KV9DPlnMKO3ozXdEGQ8/+U0NRHU5qt3WVjVgYW+7Ta/uk2KiXe0rY8OX7dXGdS0qjZE1G2v6UrmvhG3padb2K2mKxCZmzdJ9JH52c6FZRptrEoxUQRn7Z6+jJyTZ863FOtVjiGGj5alyzVzDQ+/NULljyGAl9aVwzrTXhJansmAeOl7BXLMtmkog1HcofaGCFKgh/jqXO4YAvpojEc2Ztn16UP0LEfslnPmI2xDV67uP8VTCIUoHBmTUkYpGVvRW21KFbewLd+cuF/S1w1NNC8wAKDK7hIqHw4ixVgQgLYvYiQW/1Spso+oslSk1xQliFvXEU8AZXmM8JCSVYmLRVT1ZwOmcKd6WcYugp9hUUHzqtxsH11AMk02gYVguChss9lD8OfEiFKgi0AwOkrPaQGAjjUEe1CdJyvNNnSSS1mAILblDIpM35wsRaHp8Vz69/VBbZGioi4LIPVPSIabn3sRZUFNxL0MwQN55U3Csc83cpELPrPEkhFYss/i2FSIhAywFs5vXcRqGVsFX5/sNOAnBlC25HHymT0BkDViVFpiNO9yI1Ogtj/6ezSzSKUFhCSZTJJAXzD09BnmKJ9GIcruSf4HXpAhsWiPisiZRnMIwdDRZsja7gb7AdHMRG2SSnQLMcytd2sQspmJxhL2CzHMLhVrHAPRVltjCSNZqnsOtWqHG4IoCdFq0SL0oTbDXN3THMQh7MS7maViFGl8vSWs1qzPJA5Ue0uJqy+46DEk1ljcE3lhzyr5if0sv1uAsRZD3UYT9aMnm/cjPeND3IDxQ4th1Z6ZxtCNOj0QvWu4cF+gmRbDKg0ljSJqeaTbJkkE1dBJh2H5bouGsZceF+1mXsJ9waY6tyemoV2bwDxyfCbamWRBJNGw4Oecz1Cjj0YTWEZ+T6RTYykh3Bdk9bPOveNbogzDiCAA2jl/wn3BRUh+0l6x/md1YfoMcxYICol4BRxqlHPpqdeasXgSZPqB54GQS6j/c8xliC2YjfYiWOQS5z9bmB/yfN4ZBbWN4kWwQwvsJ5GcKAzY3MxLCwya1xnskCLPIoJrosyylxd7Yq3ffY8vgsW20wZLk+anmydLzUxUqID7aw0ALlRsIhIVpLGyzVGItKYH18X+9xgVvIaLlRdB7jyFaGKgQhW8uzSTYnpZhn5lbmJOeK1dUTp4NzFGBdtYy8CozC+9qtUFzmsMVid88LvB3n1mNSHS9aJmrTl1eYVbKxvE4d3qHrCiwWeRrvd8ePUatqgOZx8Zd0VUvYRofP0q51ZXj7bmze+uP2yR4nEvefiemk5dXNkWQ9/5eCxSPPgsk9meJrW6xrmlXfo1bYKVkHaS4NP9MlAeRCMjlApj8yn+UF44OwUiwvh+dqVVg4zNMtOH730eHLQr8Rayl9Bvvo3yEqzvFjGG8GseCt6WuZ/KBAz4smOVB7HcRIwKGK6/Hgc7ZWq7pZJ/e0H7Kp3ftNV2/R6ZXDJRUCY+s7eQXCs0YrPB3+7m+9PGJfPopGj5KOVWpnqrukiaxpV9i4SyqZ7yXvEZT1KaprCxbMSBGxuMWTqXVZaMok+3nEpfkKbCvyGMHRZ0LtlAIqpr/srNXCq2aUNm2yoxlg/tyroxo5zZr6FBI0XdTCPqohffoPwBywtxWecUu9jusrdpA8K0O4tvUL7Hyn+wkX6PJRCrKvRqj4+GOPnXYQVjMepQyr6/OVRI05rDh4dOcnQyyOpGroNobEXCN6FIFa41KfHgpUyZwJXkd1QElHDzqmxTVX1YJXQXnbQpGuhcRQUHcjumBD0VxUElB+7lob8EqaO9SbU948n3TOl8qWjOWkumgv+AqfwAraZ/p9FmpEljQdUX0nzo4rCD6ZdS1KkWjx1Eb5t6q1UUPCOzFb/+DGUNsSFuxTP/nK2SuiYThcKA5jKge+GNZH2WAFa1ECMxk3WpVdwSTTm+e9NL+umTYOeqp+E11iEj5Ua5iAbsmlF4gyz7UwRVzJgnnmMdMgsVFMZpbn1KHvzllmavnlhAr3rKx2v+T2ahwkq1iBV0Yj+YI4iUgVgMDTieX8WiIDtMpaiBAqhk6pcfjlGmaHm9ObwYOAVdD+QsoXrUWhmf2+iwR6qj9wQDRlKQ18/PUXndU4WhCpbmDYO7p8FONrgxYvfeX0aZsrJUWfasH+EaBKcdJeqT9wSmGzOeruXr0XNqCJWdXLQoDoPZlumxEwKmVC/rFLyHNebEUtWN5/Mo9q6zG9RlJ9ZvbSop8DdrKj+hQT3/IbvhR9dfbBzItNlV62Udx/ItIvMNTE/5jKlziPixu2BahF0HMLox5/6Zv8WHRjLsRN2QB6EvSdUdHeYOFyrFuodg4i0NZlaP3/tOyzGY0zYK/AqHUbC8dAptzOgNGF2bTAbsfQ4O10oMyx1UwgX8aBW6mMuUwv2VAYLe0mggJCAf+0fzIps/Og8Rwko0jwaI4Lthd8H8U4NrZ7nX0jaZrx64mw7yxIId+smLxkdYis05M54QP3x8BzsKOFvMDjvGDDqnGtJwp+h7rwGngH27NNZ2FzNyCesIfBycuEQs1ndlnTyKiEEKifKeHgOXLHB/qKWM/3pLeOsKJtj24/M8MNkEo95ocvQ0l1cevXrCx/0wJRhQOHEqZtoQ93cpDhoDu/nR8+o4egL+HKVsJFA87Sb8VDRfw5MHOSO7Ob3xoqaYY2+6TXeWl3HLb94nmXw7aoeKkTRcsqzragk9CndZcqCco+zy+rASAcQgwxWACXEP9RQrDlenc7Y7kpRztf7Ork627kvz52DG3GstkcZenttAs7Y7iVEkU1K8wYkmb5jRcQ2r1/WD497Lu7/g8iWgkZ8/JY4fC8UhuD6YmQ7zRH8wCcKZ6xEdE79c9uIT0nxLG5X4abkCIO5D/dEkmB7ve3e83t22XoTzbXdZj939Zj47HcNwujhcg9Vk4vsjjt4bo5HvT1bBYREu5+765jDIqWnezSo2yRM3qbSozOX9x8H6NBsDKuwdxp+KA3wBy9Ek0XASOZ+EA3Lw34DyHxVfQSjWi78BEr+vw+z151lFxbSgqarmMxEOoOI3YWMApLJhMaVpiQq2zL8Civnb2jj8S8bEDUxTMAJgpgr78F/iW5aMZAXMkO17iFsMPTtGJQJkzPoNYnvBjjl72DFo3vtf7/WwYgnRzaiR0Xv7cAdrKwiyqpkFcQz30i7rjmbEii0Kayj83PzbXm4gI1mrYQBacMazHha09SGJT2BUU/3AxLFiATvsVlsbzu7YgoGzgNZaTRcmigaaBkY19+nwE4UfzYKs628UO2txGXFKcnMNmLS2jOTSVJXZshWtj1CDfeN648a3KqD7ZtvGBYngVr38yK35jmMha07/M6eVbun9e0NGKmuvJ17vkZcba4IfOrXZt7E3p7VyBAwtjV50S2AwSwtYGuJHHCs6wfenTi36EVHPnmkMgasoFCkFwNjGho6Ub/RCL6fgoAg9BG+Lto9fCvxZxwRJwHdnXVkO1bGadfSToNOAGfGW1tKLMFnqpuknF4/AcS35U8YRpesXyc8EmEG0W64s6AWrjcEqdAGVgVwVUQCwyCbzNouJhZIlH8PJ4bS/OUSEh1EU3X1HhRnj3+9s3dPB/0tLl4rhaHWdLk/3x95dX15x/eMhmPSGDXD7H6I+843/kuBPAAAAAElFTkSuQmCC;" parent="ATEDQ_KVCxQ0XwKxGGRF-80" vertex="1">
          <mxGeometry x="10" y="10" width="40" height="40" as="geometry" />
        </mxCell>
        <mxCell id="ATEDQ_KVCxQ0XwKxGGRF-82" value="" style="group" parent="1" vertex="1" connectable="0">
          <mxGeometry x="160" y="40" width="130" height="60" as="geometry" />
        </mxCell>
        <mxCell id="ATEDQ_KVCxQ0XwKxGGRF-45" value="" style="rounded=1;whiteSpace=wrap;html=1;fontSize=16;strokeColor=none;" parent="ATEDQ_KVCxQ0XwKxGGRF-82" vertex="1">
          <mxGeometry width="130" height="60" as="geometry" />
        </mxCell>
        <mxCell id="ATEDQ_KVCxQ0XwKxGGRF-43" value="" style="shape=image;verticalLabelPosition=bottom;labelBackgroundColor=default;verticalAlign=top;aspect=fixed;imageAspect=0;image=data:image/jpeg,/9j/4AAQSkZJRgABAQAAAQABAAD/2wCEAAoGBxEREw8QEhARERYXEBcREBkWERMREA4RFxYYGRYTFhoZHyoiGRwnHxYWIzQjJysuMTExGCE2O0MvOiswMTABCwsLDw4PGBERHDAhHyExLjAwOjIwMDowOjAuLjAuLjAuLjAwLjAuMC4wLi4wLjA6LjAuMDAxLi4uLjAuLi4xMP/AABEIAOAA4AMBIgACEQEDEQH/xAAcAAEAAQUBAQAAAAAAAAAAAAAAAgMEBQYHAQj/xAA/EAABAwICBgYIBAYBBQAAAAABAAIDBBEFIQYHEjFBURMyYXGBkRQiQlJyobHBI2KS0SRDgqKy4fAIFTRTc//EABsBAQACAwEBAAAAAAAAAAAAAAABAgMEBQYH/8QAMhEAAgEDAQYDBwMFAAAAAAAAAAECAwQRIQUSMUFRYYGh8CIycZGxwdEUI5ITFRZT4f/aAAwDAQACEQMRAD8A7MiIgCIiAIiIAiIgCIqcsgaC5xDQBckkANHEklAVEREAREQBERAEREAREQBERAEREAREQBERAEREAREQBFZYpiUVNGZZntjaMrnieAA4nsWuaN6fQ1k8sIYWNsDCSfWkGdy4cPZsM+Kq5xTSb1Zmhb1Z05VYxe7Hi/XrmbgiIrGELiGnektXNNLTyHo2RyOaGC4jOy4gF3Pde5Xb1zDWnolI+T0yFm1dv4oG8ObudbjcfRa9zGThodjYtajTuP3UtVo3yf2z1Nl1dYz6TTt2nXc0NaeeQyW1L5+wmsraQl0JkjO4+qQHAcwVmGax8Sbvc13fECqRukoreTybFbYVSdSToSi4t5Szrry58OWvA7Si4/T61q1p9eOJ/fG5v0K3PQ/TmKu/DLOhktcDa2mSDiWmw8jz4rLCvCTwmaFzsq6t4uc46Ljh5/75G2oiLMc4IiIAiIgCIiAIiIAiIgCIiAIiIAiIgNY1j4MaqjeGk7UZMwAz2wGuDm+RPkuM4TWup5WSDe1+edrnkvo1cX1haHupZXSwsJheS9tgSIid7Ty7CtO5pvKnH10PR7Eu4OMrWrwfDPPOjXjy8Tq+BYmyphjlYQQWjwPJZFcB0dxutpiRA97b9YbJsTzLTl4rYBFideNmWaUsO9jfVaRyIFgfFXhcOa0i2/L5mrc7JjbzaqVoxj3y5fxS8847m+YxpvQ01w6cSEezHaQ35X3DxK1au1ts9ZsdE544F8gse9oB+qnhurQWBefP1j+yy7dXNLaxz/pCs1WlzSMcKmzaejhOp3bx5J/U086xmE3dh8J7nOB+6vaPTXDJCBNRviubXa5sre89U+QWZqtWNO7cbeC0rTDQmWhAkv0kZds3tuJ3bXfzWKbrwW9nKN6hHZN1JU1Bwk+Gv0eZLy+BntNMConUTqylc07JHV3OvkQ4cCLrU9C3EVEZGWf7Kwp8QeyKaEE7D7Fw4Xabg96vtDf/ACI+/wDZYVNTqwljHA6MreVvY3FNyckt7dz0cVp4PJ3yLc3uU1CHqjuU10jxYRaxpRp7RUN2PeZZR/Ljs54PJx3N8Vz7FNbtbLcQRRU44b5n27yAPkhKTO0IvnSs0uxCbr1tR/TIYh/ZZWX/AHKoOZqJyf8A7SE/VQTun0wi+c6PSauizZWVA75nvA8HEhbNhGtetisJmR1DeN/wpP1NBHyTI3TsyLW9GNOKOus1jzHJ/wCuSzXH4Tud4LZFJUIiIAiIgCIiAIiIAqU0LXgtcAQqqIDEt0bpQdrox9lkYYWsFmtA7gqq5nrI1lVGE1sULYY54XQNkLXEsftbTgS14vbcN4KBLB0xFz/R/XJhlTYSufSP4iUXjv2Pblbvst3oa+KZu3FLHK3mx4ePkgLlYDT2m6Shqxa9o9sZXzaQbrPqnLGHAtcAQQWuB3EHIhQ1lNF6U3TnGa5NP5PJ81FXuB1PRzRPO4OA7hvJV5pjgbqOokiNy0m8ZPtMcTs+PDwWGB3d65GsX3R9E/buKWmsZrya9eJ9Gw1rBCJnva1gZtOcTZrQBmSVyXTrWjLOXwURdFF1XS5tlm+H3G/M9iweMaQzVMEVLISImdZocR0hG7b94jgFgvRGc3jvW/8Aqqfc8j/YrtLPsvx/K+5bNUgVV9D/ADnxaB909Fd+XzAVlXpvmYZbLvI8ab8MP6NkApBe9C/l8wvNg+67yV1OL4NGtK3rR96El8Uz0KYUL9qB4VzDnHHQqA7j4jmDzXSNBNY7mltPWO2mmwjlJ9ZvZJzH5vNc1DwvQ8c01I3ovmfTjHAgEG44KS5bqq0xzFFM64t/DuJ4cYz9l1JSUCIiAIiIAiK2rK2KFofLIyJpIaC97WN2juFzldAXKKnFK1wDmuDgdxBBB8QqiALiP/UjRkTYfPwdFJEctxY5rhfv6Q+S7ctG12YH6Vhsrmi74HCobzs0EPH6XHyQHzmxXdFUPicJIpHxPG50b3RvHi0gq0Yq7EJN3wXWpisFgZm1DeUzA425bTbFblg+u1jrCpo3M/NDIJB3lrg0jwJXHGKsxQTg7fpDieGYxEGx1UTJmXMXSfhOufZO1bI2XLZoi1zmm2TjexBFwbZEb1hpH8FVo6vZ9U5t/wAVrXFHf9qPE7myNoqg/wClVfsPh2f4fPpx6mQRe9ozXi5568JZEQBLnmfNEQHu0fePmvRIfed5lRXQNWOhsdQDV1A2mB1o28HvFtonsG63O/JWhTc3hGG5vI21N1Zt4Xm+hzOqraiMlxu1vsja2mfqVamxASZFzmu93aOy7uPBdq0y0vw/Cg2Ewtkkc24ijjYLM3XeTk0HzK5HiUVPib5HUGHTwSgbckcX8RTuaeOTWmJ2/gQezet920HHDST7Hkae2rilUcoylKL5Tefk0ljsksLoyEM72Oa4Odk4WNzcEbiu76G4yKunjk9q1n/FxXzrR1bw7ontcSDbcRJGRkQ4HeByK6fqhxPZkfTk5HMZ8RYH7LHRTpVNx8zd2pUp31mrmnnMHh54pPGV31aejaxnnw6wiIt08yEREAWo63cMNRhdYxt7sYJhYXJ6NwcR5ArblSlia9rmOAc1zS1wO5zSLEFAfIFJWSwu2opZI3c2Pcx3m0rP0GsHFohZmITn43CX/MFWWmmAPw+rnpXXIY+8RO98RzY7y+YKw7CgOg0muDF2ZGWGT4oQSfIhZRmumtc1zJaalka5pa4HpG7TSLEZErmTCq8ZUEnvogudk2FzYb9kcBfiptpDzCkwquwoWwU20zuSEFu8EK7jKrsKDBirqQKyrqVjt7R4ZK2mwxwzYdrs3H/aE4KVPUlm4Bw4t9krIwTNf1d/I5u/2sRa2RyXqw1aEZ68GdGy2pWtfZ96HR/Z8vNdjMIrKKtcOtZ/f1vNXMdQw7nbPYfVH7LRnQnHkeottqW1fCUt19Ho/Dk/B5KiL0tI3gjwXixHQawF2PVDXsfR9D7UUhDhx2XElru7Jw/pK44spo5j0tFKJYiN2y5p6jxxa7yWWjU3JZNDaVo7qg4R48V8V+dUWmtaORuK13SXze10d+MRjbs27Mj5FXWrLTtuFOqGywuljm2CSwtErHs2gLB1g4EO5i1u1brj7sLx2NhfP6FUsbZjnWIF97Ccg9lxzBHYtMqNWkrDd2IYcGe/05P9oF10lOLWUzw87atTluyg0/h6/BUr8dGIjEKkxCK1RC6LcXBkjJGuY5w3kmFjuz1t+9V9BKoRVMZJDbkNzNuAyVhWGGCJtJTuc9u10k8rm7BqZbEXDfYaAXBov7Tid6w2JsLoy0AuJcAAAXE9wG9abmpV012PTwoVKWyZwq6PEnjpzx98csn0+05BSXztorJjUOyKaaaJmVmyO2orcgx19kdgAXadEautfHas6Nz+ccTo2jsN3G/kFvnkjYEREAREQHNNemhxq4G1sLbzQNO2ALmSDeR3tzI7yvn9pX2UQvnjXDoAcPl9Jp2H0aVxuAPVppD7HY08PLkgNCYVXYVasKuGFCclywqswq1jKuGFQWLphVdhVqwquwoSXUZVdhVowq4YULHtXRtlHJ3A/YrCOaWkgixBsVsMZVhjcHVkHwu+xQhoxoKmFAFegoVK0Upb1XW+iritPFjXeTVaBSCxypwlxRtUby4oLFObS+a+TyvIv21LDzb4W+imHt94eRWPCkFidrDllHSp7euY+9GL8Gvo/sZAW4OA8QvTf3j+oKwAUgFT9IuvkZ/8iqf61/J/gvLD3m/NeGgkqAI4bucHB7vW2dnkb96tgt51SUe3O5xFxcDyuT9QskLeMZJ5zg1LvbVWvSlT3Uk9HxyZPQCPF4HNbN0UsVxcPjc+Zo7Hi3zuupxm4BtZetaBuAUlsnECIiAIiIArXEqGKeN8MrBIx7S17SLhwKukQHzPrJ1fy4XLts2pKd7vw32zYfcf28jxWpsK+ucUpYZYpI52sdGWnpA+2xs2zvfgvlvSyCjjqZWUMjpIQfUc4ZX4hp3ubyJQFiwquwq2YVWYVBZMumFV4yraMquwoSXTCq0ZVswqswoWRdMKjiduif4W77owqyxmpyEY73fYKCWY4L0FRCkCpKFQFehUwVIICoCpBUwpBCSYKkCoAqQKAmF1zU5QbMZkI3i/muS08Re5rBvc4NHZfivoLQegEVO3K1wLdw3IisjYERFJUIiIAiKD3gAkkAAXJOQA5lATWM0gx6moYnT1MrYmDdfNzz7rG73HsC0fTnXHS0m1FRhtXNmC4O/h4jzLh1z2DLtXEdINIKmulM1TK6R+5t8msbfqsbuaEBtGsPWZUYmTFGHU9MDlGD682eTpSP8AEZDt3rSgVTCkCgKjXK4ierUFehCTIsKrsKxjJSOKrsqyOHzUE5MnGVWYVjG1/wCX5/6UZK15yHq92/zQnJk6quDMhm75N71ii4kkk3JzKpgqQKDJMFSCgFIICYKkCoBegoCqCvQVAFehQCoF6CoBSuhJsugWGmepBtk236j/AKuu/wBLCGMawcBZc/1TYF0bOkcM95+I/tkF0ZWKPiEREICpTTNY0ve5rWgXcXENa0cyTuWq6zsbr6Km9Iooo5A2/TF4c58LcrPa0ZOG+992Xh886QaT1le4OqaiSWxu1pNo2HPqsGQOdr2ugO46V65KCkuyC9ZLyYdmFp/NIR9Ad3Bcg0v1g1+JXbLLsRXyijuyL+ri/wASdy1ZEAREQAKQUV6EBUBUgqYKkCgJhTCphSBQkqBehQC9CgIqAr0FQBUgUJJgqQUAVIICYUgVAKQKEkwVMFUwV6CgKgKzeh+EmpnaLXDSCe13sj7+CwsMZcWtaLkmwHMrturDRgQRiRw7b26zjvKINm44NQiGJjByz71fIikoEREBB7AQQRcHI9q4drU1VOhL6yhZePN00TRnFzdGOLezh9O6KJF8igPjVF3fWTqkZUl9TRbMUubpGWtHKeY913bxXD66ikge6KVjo3tNnNcLEICgiIgCBEQHoKkCoBSBQFQFehQBUwUJJhSCphTCgEgpBQC9CEkwVIFQBUgUBMKQUAVIICYUgVAFbZoLom+qkY9zfVvdgI6/5j2fVCTMas9EnSvEzxvA2cuo3n3ldspoGxtaxosALK0wXDGU0YYN/tHmVkFJQIiIAiIgCIiALWtMdCKTEmbM0YDwPUe3KRncftuWyogPmfTPVlW4eS9rTPFv22NO00fmb9wtLX2S+MOFiAQtF0v1UUVbtPY3oJDntMAFz2jcUB84It10l1WYhSXLWdOwcWCzrdrT9iVp0sTmktc0tINiCCHA8iDuQFNegrxEBMFSBVMFSBQFQFSBUAV6EJKgUgoBSBUAkFIFUwpAoSTBUrq7wnCJ6g2iYSL5uOTB48fBdQ0J1Y7JbLL6x37RFgPhHDvQGsaFaDy1D2vlYQMiGkb+13Idi7jgWCx0zAABe2ZsrjDsOjgaGsaBzPEq8UlQiIgCIiAIiIAiIgCIiAIiICD2g5EXWDxvQ2iqxaWBjuRLQSO5Z9EByHHNRsLrmnmfEeA67fIm/wA1puKaosQh6uxKPFp/54r6QXhCA+TavROuivt00vgNq/lmsdNRys68UjPiY5v1C+vZKSN29jT4K1lwOndviagPkcFSDhzX1a/RWmP8sKLdE6UewgPluGmkf1I5H/CxzvoFkqTRqsk6sDx2us0fPNfTEejdMP5YV3DhkLN0bR4ID58wvVlWS22i1g42aXn7Bbvo/qgjZZ0vrHm/1vluXVGsA3ABTQGGwrRqngAs0Ejdcbu5ZcCykiAIiIAiIgCIiAIiIAiIgCIiAIiIAiIgCIiAIiIAiIgCIiAIiIAiIgCIiAIiIAiIgCIiA//Z;" parent="ATEDQ_KVCxQ0XwKxGGRF-82" vertex="1">
          <mxGeometry x="10" y="10" width="40" height="40" as="geometry" />
        </mxCell>
        <mxCell id="ATEDQ_KVCxQ0XwKxGGRF-44" value="MyBatis" style="text;html=1;strokeColor=none;fillColor=none;align=center;verticalAlign=middle;whiteSpace=wrap;rounded=0;fontSize=16;fontStyle=1" parent="ATEDQ_KVCxQ0XwKxGGRF-82" vertex="1">
          <mxGeometry x="50" y="10" width="80" height="40" as="geometry" />
        </mxCell>
        <mxCell id="ATEDQ_KVCxQ0XwKxGGRF-83" value="" style="group" parent="1" vertex="1" connectable="0">
          <mxGeometry x="160" y="120" width="170" height="60" as="geometry" />
        </mxCell>
        <mxCell id="ATEDQ_KVCxQ0XwKxGGRF-61" value="" style="rounded=1;whiteSpace=wrap;html=1;fontSize=16;strokeColor=none;" parent="ATEDQ_KVCxQ0XwKxGGRF-83" vertex="1">
          <mxGeometry width="170" height="60" as="geometry" />
        </mxCell>
        <mxCell id="ATEDQ_KVCxQ0XwKxGGRF-59" value="" style="shape=image;verticalLabelPosition=bottom;labelBackgroundColor=default;verticalAlign=top;aspect=fixed;imageAspect=0;image=data:image/png,iVBORw0KGgoAAAANSUhEUgAAAOAAAADgCAMAAAAt85rTAAAA51BMVEX/////agD/ZwD/XQD/7ubykWXy8Oz/7Ob/k0r/kUn08vD/h1DVgVL/ZAD/YQD/bQD/8uj/+vX/9+//ei//lV7/eRP/3cn/cgD/jEz/8OT/hDn/s4L/WgD/pW3/gTH/5NP/vIz/poH/g0X/nWH/t5L+j1THuavd1Mr/r4r8xKv/toj/59z/dyb/x573m3T/eAD/z7f/wJP/3cv/up/u5t/uhE7/zKv/chf/l1X/iz7/fyP/w6L/o3f/17zvwaH/q3vVyr//nG7inHLZr5jw08XgpYXaj2D/rXb/omT/nVjjwqnTuKP0roxxvdl9AAAG60lEQVR4nO2d/VuiShiGYaAy9wwIKn5LKm6mVua6fpFZu3uO2+7+/3/PAdu2rVQGZki6ruf+uXi5ZQZeEJ+RJAAAAAAAAAAAAAAAAAAAAAAAAAAAAAAAYF8Ypqmq6hEXKkshzhpHqpoxjdB29qA2nc0LVOGhWiwFlyoVq1xFNLkwn3YGthlCz3avy5QSQmQ+aIOlWoNylpEJoXL9zlmw2Y1uWlmd8ro94LIUdIWUIpRMcjenQcWMhaxoguxkkrVZBO2soHqepELHO6ejsRQlt67XZJr7RlNkTVrbMRmNpbhKfrE2i58ktQUKeiy3f6zHQgvJtMUm2OI+yzxntvkYGnZfcCG6YhNcia47sTZUGV3rYkeKLGs3bII3muDCRF8evqqyVARX8QRv2QRvRQvKslJ5WcQUPEzWVUZsgiPxn61MXsxDsy56fHpU2fwkqSq+Nik/MzSuY/CTKaug+CHqGf59tTAqkzhKHLMKzmL4eMnEeSpQ4W6rN6ExdaI+biyHUD5/3H4phjngoTHdDfqoMZxlPKqP07AWwxnU+wTzGVbBTD6OEfSn0TgU2ew+Qmh1ynwLak6rIpv8P/vQTK83v+gL3SqhlGpKvjIMcYttWpW8d5vm32SL3Jf+Q8vmCNsoIUTPtmsnH0/T7HKPpE8/ntTaWZ3/QcIT6xOpcSdmCnpHrp7ruEz3uNux3U6uTgUNWHrnXwttEU0MoVq+dRbqwc9WTPuslRfyWIH0h972BpwH0Jt0mlbv9tTQj+62Y6i9bt1/dsJpSQfrpxQcboTK/WbrnOHpYHhK561mX+Z6uEe9fi0zj/b/3pQr1IsHF44l8Mi9xLCci4NivRB1UhLv5v4oygEk3qCsnVl26TDC6TIc6cOebZ3V6poWxZGqUi9km+RPOWXm9jIxHrjXGJmeO4swKRVLGoRpdL0ply3WxkJOluExz2vFrBxqtNIr6YpZkGh6+c7hvM7xYjt3ZZ19tNKKVGGYg377pZCpa9lvOi43Y9jWp6mssLV1tCbdB/2Z1zZfpr58/abuaWBuwlS/ff2Sugxu0clUOg74G5KtJMjsOWYl6GsNkpJSu/+ETvc86XZjt3fPsGBBwnzXuh8yAbufChii2tW+DYLo7jyEwYLMz1X2xe7nOYFDlCRfcPf+Bx3BdyC4a/chCMH9A0EIJhwIQjDhQBCCCQeCEEw4EIRgwoEgBBMOBCGYcN5e0Gx8iE479Hc9by+YyfmvtkSDXoautw/B6C/uhHjHFIIQhOBWwegnGfIeTjLmv/9E57/Q777t4UKf5iF0NXQyEEw4EIRgwoEgBBMOBCGYcCAIwYQDQQgmHAhCMOFAEIIJB4IQTDgQfPc/r+MTpEf7FghC5fsFqNLbt0AQu6MqAgXpqxDEpLE76CD4V9hKN7G/ovcxu7uzRoIFZVocxBKHI4LSoBiQxMEgKBO96CwSeBjNhVOUA3c+JU2DX/ogcr85vUrU6aZ3NW32A/VkP8viO9NbLYRoynw1TEJgh6kOV3NFY4vOod9DJAgTqhWOP1mWPYo952gz6ZFtWZ+OCyEiyegqZPQloXq+/PmgM37zCA973Dn4XM6HDKnXXGkYNvpy/UbSJPthxZidL4LF6kN2si4ccme9RkWNFl5KCFX0+3Ev9rCSTG98rytRI+S8XjpqrpoP1ejcscQE/m3CtIfO3CsSeQdJ3ZQMvvhUb1KW75xFDFlPxsDPp+KLOPST8aQBb0qiv9JDs706+RG42AMrpz9OVu3mhHAHOJKBxPd+59OW/ARHRZlXhnwZjsb6Iqdo/LmN673KrWdPR1xgqXfmuVwOrIjNa8kaLAuKwDBc8pBE7erCtuhvlNJ8u+GGdiy5jXZeVHLqb/SHIOxboRm/8nq86tl2N0QvYHfb/jozooOM+7frradjSWkmSpk9pbmsxBFlToq/e8pFLDnbMmG+/+jFErMtkz/raizjiGKXtTGr4Die+k+PW9RCLIsV1FgFY4lqJ/O/2siB8OVQ1hVYBeNIgifPFn4xBF4Ln9BYBePI8ifOsxImS8xoWJTXK8ts5DAGQeq8PIenxBvucVGbDUs+jSbCRyn9ySb4U/hnS/obvlOxyqINtRM2wRPRgqS4sYuyZ4KHyr5WztKmW74TM1JVoQdxP2ufUaW2/Y7NbjM8TGWGNNkEhS7Pp+d2doiGWxZ3x8K4wKLVF1eRNAP7Q9udCRsxE6ZudCxs0Sc6PWNp8M1zUatkvugmtiBmSRZCFW338ph/c54r62S9xgwX2jVDReNa4yzj7+ikWQv3IDozdhqNi4sDPn4x3POavziLXFw0Ok60BQbS6fQhF0zf0vDWiPC7WAAAAAAAAAAAAAAAAAAAAAAAAAAAAMD74n+lRrmptwLV8gAAAABJRU5ErkJggg==;" parent="ATEDQ_KVCxQ0XwKxGGRF-83" vertex="1">
          <mxGeometry x="10" y="10" width="40" height="40" as="geometry" />
        </mxCell>
        <mxCell id="ATEDQ_KVCxQ0XwKxGGRF-60" value="阿里云短信服务" style="text;html=1;strokeColor=none;fillColor=none;align=center;verticalAlign=middle;whiteSpace=wrap;rounded=0;fontSize=16;fontStyle=1;fontColor=#ff6a00;" parent="ATEDQ_KVCxQ0XwKxGGRF-83" vertex="1">
          <mxGeometry x="50" y="10" width="120" height="40" as="geometry" />
        </mxCell>
        <mxCell id="ATEDQ_KVCxQ0XwKxGGRF-84" value="" style="group" parent="1" vertex="1" connectable="0">
          <mxGeometry x="125" y="300" width="100" height="60" as="geometry" />
        </mxCell>
        <mxCell id="ATEDQ_KVCxQ0XwKxGGRF-14" value="" style="rounded=1;whiteSpace=wrap;html=1;fontSize=16;strokeColor=none;" parent="ATEDQ_KVCxQ0XwKxGGRF-84" vertex="1">
          <mxGeometry width="100" height="60" as="geometry" />
        </mxCell>
        <mxCell id="ATEDQ_KVCxQ0XwKxGGRF-13" value="" style="shape=image;verticalLabelPosition=bottom;labelBackgroundColor=default;verticalAlign=top;aspect=fixed;imageAspect=0;image=data:image/png,iVBORw0KGgoAAAANSUhEUgAAATkAAAChCAMAAACLfThZAAAAwFBMVEX///8AYYrkjgDjiAAAX4kAWoYAVIIAV4TjiQAAWYXjiwAAXYjmmTEAVoP01bG4zNhMgqEhcJUAUID78OH9+PCju8r006v227qGqLz669jssWt8oLb34MPxx5rihAD88+iWs8XX5OrH1+Dv8/bqqFHrr2JxmrL3+vzhfgDT4Ofm7vKsw9FWiaa7ztnuvIWeuck8epvooULllBjwxJAydZdjkaztt3YARXnnnjvppEsAPHTrrFvttXLgeQDyy6Duun9JHRG3AAAOnElEQVR4nO2daV/iPBeHG0hT2lCWCgrClAIKyKKI4ujj3M73/1ZPki5J6ULKoILt/8X8ABNor8lyzslJqig/Qyun49SH330V56e2aapY1ZC6HX33pZyXHAt4wgg8TL/7cs5HQwIO6jpm7KCGne++oLPREgPcdJytakIGTwP1776k89BUBbDJXq3WFmt4EDXG33xRZ6E5AvrCez3cuuwwLubZ/aLkHvi7CWMH0SKlSiFXGMC18Ha4RnS80yBorpeTzqjouIkiMwS6Ez9YeFMFhBirpvncKay8eI1QuNGRZgcx4IIqUid3CZXzrTUG5kPok3HDQkjTdRVjt/lha13MGVFRUxjtNKr5fFhfPHQmDc3EHrtJ4V1E5JgA4qSZYDTRNdbwVL2YbyNqEDdinfznRZNNtwA15l93TeehKYBA66QUWD0zdhg9pBTKpYYEjJVqfNSBTudZc13Yd2EtEGlR6VNAB9G5AutFPCCsrQrwNr3IvMG6rDX5mis6GzV3++s0Oh0smImiN4seK+oO+dEmV2sTPUcIzdcaC38W/piong5MYQwbIoDNaLPrIGqfWO0vvLDTlxr2X4k/i5fRUiudDnYozYbJnToqQKJ36ujAijF950062KFinuAi/VMNNSUyZ8QZKtM1Ne20mPaYW2nElRDfP6Dn+IJbk06xja+4pvPQdjfG+TtpDp0wdEWr87Uyd7prsoPfo+i0PaZzjqTudNcU9ah1YhYzrKcJDs+uqWWpTVzETjwRE053ZAsvVWoSF96EKwBDHli6npldVwQ7mYgxHGf8xmsKiTeRgfSPVsQY3lOaoNMLZ4JpDQGUL03joaBIpGBamMDMQGLC/LBiqKOC2UauJumvactmOdKDBswMwbchM4gLq46KuBF7lnJCcjSaM1b0V4WNdHEBzUQV/TUQQWE68sVpVkoxvzLdoWz+6IR6YernXc8ZiS7SWCvp4lNqmehF1ISqp2UyTdomXUgscsSoGhhYGVaj6SShF+uIVD0MUIbidbPw/F2NEYSZ7AxiA0ayPnOphZYhwEnlkEkCFzETFlS3MiVUz61ijmBqZokMM63pHFF4r2Mt80xZJyag9LLZz9XKBChrhhzN0jHlrecfqgnGmRMf6ByRbT7+iQIw+5A1RYVhoozNQxB0iN+fKTr1AzUygZ49EXhMg8PyK44/Um0yZB1Qrafm3hru4YOG+jnNbso8J/8obfG+jRHxIp4HUHvHvppzUgPig+5/jvLugj0fSI6mfOY7NtyEWLz9ubSpcZd3v78ZbnNN+egw8/tz3OhIbxWMi62uSW8uXLGRLr/T6xILvkAbASjvxIJ8N7oJhsE2iDF1R+WjnG0t1yMd9UCD13QtNYNnwDZxOp9xVeeghQ5Mf6xyT9xA0q3IYavWn3RhJ687BMxR8BJka0Vqntf7p3zl64GdegAyJMC2mfea1/N0msFqK/UK4BIDTX5ZoslO5+jkM9xE97m6Ax3FgOb0X+nKbgdXUSOPW0zIzXtrX9SyVamBqznStTvueToYNXOYU+fvxGHRj2fW9HR5I81BbL86gCZ08mbaEdsC0c5Gex415kijyxJ4m7bXlnvIrp637f5jE7J1w7rmWSSk0WVLoh4vloidIKbDfC3C9kijq7MMf8D8/VX8MRKpGj80EbXu0DZPXXaKAdRHzA9zFxBpKmL2yXLYU8k3qDBP02ydHoPYaNKtSazFjNXDUgunPQsCaOVpdYLumKbjlG8Tj6wslomgYZP4IXr0nKKfq4bJXNagj7YtGHPWkIw6pNnhPJ3k1COWhW45wfsOyp6n4+oOkNHOypF9MnQmjtjKeujgnTZbYhiaOU466aGDd7LWVQzUZj7DAFSOdXCG3HSLINTzmyW2+O0cXHcED7IJf4ruEk9q2q/pGuf5jI7pvwxW2XPef5QyP+llPmp3JttGY019EjXPh2AtM6Cbt5cAmfTMfwwh80n+YaQ8f20lOywNNen8SRMQq0hbP+R3pCNypKyLnqX52LCGNPi8dVZ5CjjFSgqA7j2UQ7NArz7PPbMMokkmADz3Frnun4doyo67zrMZcrDYeVe5NkMO1pauQ5gFugPUdI/2T00zmQ5Hq1G2hbW71eruhw+eY8Ae9Zcc1VxNgIWQaSJtIpvF025atAIyl+2j02td9K+uamm6bEVrDbr9WF0MYn7hMvim9EsZ01UIuuoam2vsaMh7nhh9KpbUMs8IatA3rHW0PCa7q+tSea9mYRqtq7/VlNLGzVM3/CMXM/9vdsz/QUgT94HEaB29SW+pw5cpEayvW1CsgrVj5ZsN/lbKRmm/bJFc97ZSrqTWMirl0r1Y5aLs/6myj5xSdx0wHAnFO2FwAGh7W90wDO54Rs9TuSKBLUxu8GbLsC5Vyvf8h7KQU8YNlhgGd5+LoIJdWfu8uibcrYKOknzxWE679XhyV1JtlKm8CWplIkcMO8jcCS0Uix+iCLl9i2v1aJWjbNF7lWxwIrkrW7oO6bQlH1NGcorygOmTTXFT8F5HQWflDWlPmmy0ye19XpSMnoQWZ1QqUjPEIAyOVItIbJLGq/dbmcl5T/jDgKNbacFYxTmk7h8YBU2OVzl0DVgUB2fYry+/LlPl3e+twMUol97vf+3q6XYjjIPlK7feAeQIKsJOaHX1gNy640ej0rc+NXis70E9HrkrfjPvsnczEJpppdpPKHXxHhQzHr2PDiFH2AGdn8jJyT2PLZ9I2v4BPjCqzkI/Hrl7PspJ16lxcpXblHJ8ICi7oA4kRxe7Tb9DcnJNsTUl150Ehaxp+4jk3v0+VfkrXUegvUkt+OZ/edk1iQ8mR3wA3xUTyfERDCVubJwGZciscExyNwG5X9J1XoIRrPKUWjAYCspulz6cnDJt/HbRieT4rAkTnlnkbYxy6Q6/ndx1QM4f+hPULYfL/QM5guB/zJsIkeOWWuIhMwE4Ciuf5JQV2wwVIqcERl2SgbbQArajWHJTrrQfHwfyPzkjcsqIpliEyT3wvhhvmPD+TIvHkOtp2FX6Y41+I0+/fav7nMgxhclNAy82fqcin0PYQxjiyKnQVfpWx8AAQlFy6YO9qBMixw4n8t7Hld6xW2LIdfwvSH+oSgo541364k+J3DzcqHY03LGVj0mOO1Jl6Zs5JXJsR6j7PsYw4X802fh/THKX3EV6Tasp6qTI8WYVNUzG3Ap2o0rHJKdwf8Ao/eq2wor/lpMix86JcWlEcrEDKv4Jd0clVxMiRpVy2QipVKq+31/trsWcFrkVt4Z31iymwfTgQz0qOeUpPUppEJyvH6EbPS1y3Brevfc2t4K9jnxcckpt7zKEURZXE06NHAe0c24HiHi1RyantK7tvRH1isEhnRg5JeiU4RMXVkHcPXh2+7HJKcrgqWRXjPRFGTswlU+NXEePfEQVTB38lOzjk6N3+XFdNWw7vPAQWk6w/YX5UyM3Nn1GSNg8cBfcLG+Kn0KOqXXRFdX/eNkIkXPfVj41cjzsKxomgRUM1CAKEue34qOQi1GND4FlLyhwcuT4UgM/mXge3KuA5EvJKX3uZXiu7cmR4449P3aRhwIEM+9ryXHX1rhxPzg9ckEwCfoHpEx5LFiIeX4xuWDB5nTJKc/+HOEfes9DnuIBggW5CLlgQcL/lIfZxRWHEyTHcwprNU7zWOT6T3/va16NeHIKCO6MZSnVAytYNFROkZzS55ag/eJ/eBxyV6WZbVRm3tcmkHPCTJ5hbKlTJKd0udVc9hf+j0LufsYSMC5e7A2tlECOL0jTW7tLiBSfDrnKBy82KPGP39yPksnJB6AvZ7etKzIEXJBmTTMKEshxK4QmNi15fClUKIbc5BPJ/dm1Sv4GxrH/CVOrGnxeqTIyH/4H3hp/Kwholbu7v5KgVrmq9GfVaml2QyD+SiYnLEhM+eudVJ20NpeeUncIuVbQlAyvFz4JbkWIwBs3mks0HLrZLcZb5Ysipw+7T8iR/4farEu+L5kc97a0dmdn+SFQDDlhKTuNyQHkWlV+u5731Rd82dKFWPiWozO6yk1AOMbj/dj9oXjdVhSXXJ+Qe5oNksnxsU1ISdxJao0hx8MFAKecq5KZXPdJiD3ZPiUBXKn8JAbbhTSn0oZ3ai9/jgxVvN5j7ULZr+qG1nq/vbGrbrtLJMejSly78fW4vBIh190Ey44TL+7L+eTeqinaVMRwMc+VEzNkSxV78/Z+6+m6FCc+BT/y/wejbFc2aT/e5+Tur+2aQmeLNHKrSCJ1ZE0nNiNnqQk1VD1WPCE+IFdND2cKMoTUxE24VmjNJ6rKY1Cxlb6DIoSbkbsmHZ321s0f8ubebqWQi2ZSR9L943OZttHc9WRxcrI3UikJhsRgT/w4XHMj1LyQrumSq82uCLmB0v2PvKWJjinkRlb4JqOzZUIW2ELVoz39SOQMO5zW2qrKbqIw7HDaRUtyC4pvyZRKSv8/MpTe2mSCqKWSUyah7TkQRvK6kvLnpg7gW8mOSa5iv0byqH8ZUptJjLeI5dav7l8w4uT6s8cB+4ruk00N7MAjjduBNBG2KekgumUsWCaLZh6Oek0NaeygjzjFkNtz+wbdvPUn1m69fC3Hb/wSxzvjLaZm975Kqu5ZMvLIKZe28XGhtPo3MzZc1k0vawvH7d1aPSOTjOe6hnAnJpOwrfmV43I2x3f1h04vVjxNW5bc5vHlI9ncH9ReqoSs4OxTlJvX95dHbpFsYrZrkk7b//j7Xt2k/LRPTuk+zmb2bGbIJfjNV22n4yyOfHzYGEXI/btaA1H+ZCBshijJ2G2pGlx91GTdtc/R/DPIJegPn0KkndTT1ae0uSQJ+Sp2euj4DPSl5MjQztFJeqknK77DUf4xZv8gvqdMSK04S00F9+RLflCME//5kl/8HC0Aj5R+0aNmL/ixCnacYXcCGnX2aLJGGm9x8g8x+/FqW2q6Ql5Z3h5ckaZgy6uM8nwsdEQZyEGUp4cH7JU0OYye83uscZykyEFsomXBLSwpco3O6OyPrfw/z8RAJkOVxnwAAAAASUVORK5CYII=;" parent="ATEDQ_KVCxQ0XwKxGGRF-84" vertex="1">
          <mxGeometry x="9.52000000000001" y="10" width="77.77" height="40" as="geometry" />
        </mxCell>
        <mxCell id="ATEDQ_KVCxQ0XwKxGGRF-85" value="" style="group" parent="1" vertex="1" connectable="0">
          <mxGeometry x="255" y="300" width="113" height="60" as="geometry" />
        </mxCell>
        <mxCell id="ATEDQ_KVCxQ0XwKxGGRF-69" value="" style="rounded=1;whiteSpace=wrap;html=1;fontSize=16;strokeColor=none;" parent="ATEDQ_KVCxQ0XwKxGGRF-85" vertex="1">
          <mxGeometry width="113" height="60" as="geometry" />
        </mxCell>
        <mxCell id="ATEDQ_KVCxQ0XwKxGGRF-68" value="" style="shape=image;verticalLabelPosition=bottom;labelBackgroundColor=default;verticalAlign=top;aspect=fixed;imageAspect=0;image=data:image/png,iVBORw0KGgoAAAANSUhEUgAAAVcAAACTCAMAAAAN4ao8AAAAk1BMVEX////HLEjGJkTRV2zJMEz67fDFIkHFI0L23eHLME7GDTf++vrOVGfZfozchJLcfYzbeIbFGT3y0tfGEDjFGz788/XnqLL45unSW2/uvsbqt7/vxszSUmjPSWDVYXTpsbrgkp7loavNP1jOQlrXcYH13+LilqLWaHru1trWgY/owMfo3N7fn6nYiZbfkp7NX3HDACtBlIugAAAJo0lEQVR4nO2daYOiOhZAiyjBpVQiwQ1xQVymp6um//+vmwBJWESwCGmevns+tTRCOIasN6mPDwAAAAAAAOCfzNgdd52E98NcTHonfzfdu12n5J0YHwyCEQOT4Ai5ti1uPkWGgGwHXafnTbj1LSMD6s+7TtFbsAxyWplYA8S2wAwbBVBgdp2o12cutFpElrL42nWqXp//cK9kst+HDhdLF10n69Vx/SST0l/Rpw3hYofLrhP24ix5Br0kH9dcLLa7TdbLc6OJ1xv/vOZFQZJ/gabME6/4v+LAJhGLfOjRqnBOileykUcWoyTDfneYqtfHDJL3Pkiz52+eY88dJuv1CZPeluWn4y3fsVi06zBVr88v0QLYpscmpFA2AD/nyocHcC89Zse1WR+qLgXOsveaEXuNxOJJd6l6A2Qni4by2HgXdW/JreJrQB2/y8SumFjUq/gWUMuBcrFkKo+5PVbuEhh/UWIqxX7JY67PxCKoupSwxSgsSbtZpo8MPOswUe9AKHPsRR5bnixjBHMyalyl2KM8dg6QceowTe/A+H9CbGaygInNaAaaELeskg7CXh689RGFSUQ13K2cQkxHBubZRi3QCNcXYlE6WzC3Rl6HaXoL3BMfK0AodemRoMMkvQfmSca+pGJ//YGqS5XlSUbApQ3X9R+Y9VZlGYiiYJjGFW6mFd8AnuLcF3XXKW1gQVNLnZsoCDA0sFplLopYsq8/GXgeT/Roh/D+t0RS8W+4WHqpOR14imXIJ7vFzAyBDNsCX4SKCa0dj9783WmC3oK1QdOJwluSYdG28itALeYqCh5KJ2BtCwqCFliQ2GPqlcdvQkC8CuaORxOnXsdJfDz9qvoeUIlnyHHXNBDDjr2iVYfpenEuYhVMzusiqbmGHSbspTGvxCjzyuM3HQjMaMTZzy43zHj1wKsCXh8Z4LV1NsUlx3flAAGvP2chBq4M677eolBvNeQoayw66xe9zpKOwrst3hiby+WZsTS1vYgXqdXauEWvrh8fwI36BXPbXjy9nYl7tG05R7kMbYG8wN62vYqrDeRX5Cr0L/ahJOFLb2r3hhYljkOp4YezxVmDXJlbcTD/MItePdy8HzsfYUz8zVNmx/sTsfBIBNwP/mAOEl+/jCyLfD6+WnS3hD/i0JZiWhwxOl9WFmGXTesSjCk5zbyW1cqyFfvnj3uvKuMuX/GlyecTcTLrLYmeFIsJ38FIPPZQiEwSRvzFAwFz2a0ZiUM9ZKDP/ElXGu+ugFhuTaAYxXcmp2ObZuViDdyL5giKXvkcV7MFBlPMXaxqzHorktzHEuHLJV75749IcCkNY3jC6/ka38cidDs7LNbe3FvvL9Pd0IkSimjQ3jye3CWD7uJfq+iVL+pqNnM4lcMNNKxYUcPykHgrn/AapbU/LVlbWu91E49/UDrbmLnSxJ0fTpFwRMKWsuxyKJJ6Ta5Y8PqbP0y/0fDrNO3CYct+sMx2EOK08fycV3Y5ZN/Fj9d6jSsSRC5lzzJmBVF03W0rYvkgILveil8v73XDxdBmgVlTnFMxLXmg5RRlT3rWKzsT7wqFS53XeACJrB6K249isW1sx3blz2RtxSPnvK7FIwfNfsVpfocjjA6F67gHlD/lea/sXOqvsxer8TqItVatnJxHZ9AWFqiI2VYUyIog6/UinsRZV1ykgmlx5yg6zO7ONz4ad65+4DWuwvbp9Wq8sn8bVvX+Sl50U/W1lTeZkPRSwuvqY76V6wya/oR3Xlmq+7IGXPTvTf3Ma3S9oWwdVXuNMyOqecmjBCPlva1knZXZwoV7NU4hEXV0851ISrwyE0Gc+zcBKfnPH3tlqbemydtW7TVKS214iRulSXUzNrG/W26hiymjCEUiFTZ9K/XKbuh7XqnVRl5ZuU3DKJS02uuWPZBTu5NlFC7hqK1U83gy8tGC0qt80qB5LPEDr8xsudWnvaLC1xDZzeXWVKVe45YPqa3royrFUVpGMRalQL6uL3qlvsJbkfFKCgO8WXBq+UmvW1L8xZAzTO9Q4tU9Rf9Rm+KjslexbR7N53ovnxWIUoB22t/y16FTzGTS6mTt/6i/RbwP84s8LBZU8uu3qteBiBTM7eJk2rkXlARqK4uk12iUcbAjJWYtYi8zW3k+5TUuAN0jelSYKJSvK9XytcfHU/zMMfOQe71ooBrjknqNs723LZq1qB2X3vbPvTL2w7Jf6oHXp9oDpmp7QAa2pi1X90JzPfDh8yPSjyh4ZR24UzaPWTTkYwbNvLLr+bSs3H7YfqU1LcYowZZC1P/4xJ/3II64x3wrvX9pYQDizivLY4G4jZW0jmKaemXvwA7fNzpK+1s7q7bNH/e3qMK24jyGxejzNLuLYb6waidsqMQr67zGP6CFrxk7zb1Gcz2IFoqD8vGBKGeTqswYtzypQk3t8jYWSfr97uKuld7ORjllXqMCJ0DGNedGxevHx/Kr0CMuH8/axyXB56NdAcdxGBXuKZR+xyQZyS2jiaW7N0mnV2Z2UOhrqHll9c0xyObZB+Ov8VuKaNmY+IebWKCfCsWfy0tX5xZZ9XNViVhkqNXrHapeIy9+2jh4NF+w7kf3weSan38dm94kSMa8bZW6mpeurBAfb/xsU4U1e7y7+AEF/qLXaMR/JTp1D+e3WPs8OsUijn+dHBab9Xp/nIY9msxvEV9pI0YxSUAG614amckeHocl89wq/FWvH/FEWWxWznPfz8cOQkSS+Vg+IUuxlXwefe7VGpZitZu/yufVMEpuq14nDp/Qd2q8hoSfSMR23iXxA44MD3jcIRpMEMWjg/hYFj+w3O/6DrNpISbdiP4WjoUdpzdT/qst15KmNLfastf9bJIwq5nOXcgTRRevJN5FnDOxqxQsL7N0duNRvMt8YYfXTz/oB6ftKgyn3ll9VutcZlU2e1r1+s9m7Jqm6bYWi3EpDgQhEqYv1r/Ia7vwOLaM1dx8MXhtyDzXCUDOLl8JgNeGZOdGkHMXOAVem+H66YSgs70ftgavzZDFAHL8sskA8NoM0RogfnkMC3htxjUuBpzTo54weG3EMtJKho/jrcBrI+YOs1rVqQSvjTiMUHVXHbw2IqybugavegCvegCvegCvegCvegCvegCvegCvegCvegCvegCvegCvegCvegCvegCvegCvegCvegCvegCvegCvegCvegCvegCvegCvegCvegCvegCvegCvegCvegCvegCvejBV9n0GHpMs7ACvrRP/NQPw2j7RbrvgVQMXB7xq4ZuAVy18j8CrFr78+nOABrT3Fz0AAAAAAAAAAPiL/B8wb5DCroLGOgAAAABJRU5ErkJggg==;" parent="ATEDQ_KVCxQ0XwKxGGRF-85" vertex="1">
          <mxGeometry x="13" y="10" width="93.34" height="40" as="geometry" />
        </mxCell>
        <mxCell id="ATEDQ_KVCxQ0XwKxGGRF-86" value="" style="group" parent="1" vertex="1" connectable="0">
          <mxGeometry x="395" y="300" width="140" height="60" as="geometry" />
        </mxCell>
        <mxCell id="ATEDQ_KVCxQ0XwKxGGRF-22" value="" style="rounded=1;whiteSpace=wrap;html=1;fontSize=16;container=0;strokeColor=none;" parent="ATEDQ_KVCxQ0XwKxGGRF-86" vertex="1">
          <mxGeometry width="140" height="60" as="geometry" />
        </mxCell>
        <mxCell id="ATEDQ_KVCxQ0XwKxGGRF-21" value="" style="shape=image;verticalLabelPosition=bottom;labelBackgroundColor=default;verticalAlign=top;aspect=fixed;imageAspect=0;image=data:image/png,iVBORw0KGgoAAAANSUhEUgAAAYUAAACCCAMAAACejyR2AAAA/1BMVEX///9jZGakHhHYLCChHRBcXV+tIRVfYGJ6DACtra75+flXWFu8vL1aW12xTUd0dHatPzejFgPh4uLu7u6eAADUKx/YKRzWDwC/JRnJKBzFJxvWGABrbG7XJRfFxcbWLB+1IxbXHw7x8fGGEQfQ0NFvcHKfoKG1tbb76untrKnzx8X1z83lgXyBgoPa2tqJiovhbGbpl5PcSD/wubffX1j43dvaNiveVE2VlZfnjYn88fDkeXPro6Dmh4Lvs7D21tTeWlPbsq/IhoK6YlzKjIjQmpfjw8HbQDbhaWNvBgC4QTmvTUeCDwXcTUXAb2rOgXzGUEqwFgCpLCDeuLa8Z2KKlVhHAAASQklEQVR4nO1da1vayhYWNKQQUspFogYQKDcvgJdiUbTa1lb37rY9p/v8/99yMiGQuaw1MxGoteb90OdpSCbJvFn3NePaWowYMWLEiLECZA4uJ/fvb47OT3tP/SgvFb29dw3HbVQ9NFzn5Hj01A/08nCxd+O41fUQ5YZzsnfx1I/1orB/1GAoCIhw3aP9p360l4LR1bojUjBF1Tk7jk3EynGxd+I0yggHgWZ6f5p56sf8o3Fw5LgBBRImqm7jKjbVK0LvuBxqovKDIBLl8P++qY4FYvk4fcdMe/Uoc3lGmYey56ve07R4BybXT/3QfxZG5y5vkJ0DT0FNXF9BVT0KLntrN9wpDefsMvZdl4TMh/eAQS6fkN+IsXbdh0viF40cwUJ4AnF08MSPvzQMaq0if6zYqg1+xb2vD10gNCDCcBqcsBe4pocN6LQ/xXfNmpZtW0PG2DWH5JiZXfGte5eeXwrNLfnOy+y5F6IozAXi/tkHcx0rQWBUmuGxYsLwD1rpVd55/8h1MYfU84LOWF1z6SKn/gkC0ZqS4NEwDA/2zeCgtTKt1Ds+QyNkb1bXr3gHCNNcc9ZunnEwl5tNeMIqzI4NZswkzKHs2seD80tZCpB00cUeZMVZ6p5pMNecT3jCnluBrjE/WFnBPUfnZVwM1qv3+Dc9OsZTTFOBeP/hOQpEMWTBmBuBdMiCueyXynwQo2KGhMne6cGoh8YBB4f4tb4gNQ6fXzBXtH8pC6hfSs1jw3W8GKFxdjM5v2S+7N5of+/46uhMfr0nEHfPrRDxK1m42LtD/VJgNqvVRsM5nF56PDmpOh7cRkNBon+p60yeVTAHsrASu3AwcQC/tBwAm1DHt7c9p4qcslN/m9oEjled8jPyXUEWlu8jXVwKfmnZ0zxuY/3u5OHh5I6kilzIXFTfk8uPYRHa3EqlUm9f/fV2C/jR00zvTpfz9CsHyMKy44X9e94gezrj7nDvujfXd5ne9YerO8BoOB+8X6sAP7s79VTKZ+HVq7/+ScIC0Th/Fr4rzELRmNJgdRa/Q0/0LqvOyR6oLnof3gsiU71YOxXDZl8M5iwQIjCBeHgGhQiYhbVizrINy+guOnwGCs+cG4npHN077PmNw7X3HDObO6kQAQseD6+S25BAuNXLRV9j1UBY8GxDtltrYldpogeGZ+6e/KpTzoi7e6xV2K6nUhALvkDUIYFwT35zzxVlYXFkzkF76yhN5gGXPaVJYMRAYIEIxAYgEI375b7asrE6Fi7uwCRoVWNC4EqCKAYAC75ACJZ6WjL6fbE6FibwVKr0EQFgjQl260mRBJ4FTymJ7lL176W+2tKxOhZ4kzpTDofqS5HwgPaMELsA6qP19fqbpb7a0rE6Fv6DpBpcpQffk2X7BKX0lhYD+JJk/sWy8A2eEi8AUOQ8e2ey3jxBIN6GYgBet5naeMEsvM6D7rtHg3MucxyPHTkJ/tdd51jAxGB9s76RTGqy0OwO+50Wc6hYS4+H/WGnAJ3eSo/77UolN+xkI6QYirXOMFeptPvjdGsWCmAsNNPCE1EoZIOROlno+Xx4LGykYB4aDlYDGJ27kvIyPbtU7EzCNZi5bZ8DTRZqlmGappWbR0mFTsKLXb1jpiEkEYrpnEXO95NthmFZ/axOiD4IhiRXeaNaubTf/IKwkA2eCBq5NTbISIlgJGMMk+WxkPR42EF4qE4+XDOjZ0anh2eyzDefeQ0E4h8wdeGfkJpyoMfCrABvJqaP1cpZYWqZ64MYDOnfppfZ1lhoJ+JQawuXGVZ/gLFQC57IyIkjVSyTHci0KlDHjM+Cx0Nyaxec06rrOGc3R5Or8/OrydHNmQMnVafnkspP+eGG+50IxM4mctFWcsaBHgvhPJDvfpDjXtMKp7jQ56dgNhFjWbahVbHgq/qFJsRCJrw3N7+DNjiSValhLBAeAA9+Nr3Vho8qlDUlnz+Zf/fs5nBvv3exdq9R4Qn4qVMcaLEwoF6MtAfx8xzm1NIwB/5JhjgPAZpDcOYC9sIRQxZaYX2hzwyVRkey+rw4zlnweMAMBI7p5199ODo+vZ7Z8kusL4yHZw5oDrRYyFKfY7FvCy9oBJahmRN/o+dhjJCc4HURwwN1H6jWlqB19xglgRDKJWApFqaKCRMIcP7P3pHPnzEcQJ8qiJ0US4EmC9Q754AZC1goJFBBCM7LQVopK5k57npV3Xks/Qo8cWAmjWXBV0wqgSCmwn2YUJ8/jQcdfbS5lRQ4iMwC+Ha+rhnIp8CfsYpIA65DBKhY6KqGMpjyKM+CxGOakTA5PcBrxccaLqygipbHQoKcVFCTQGjgPUvlzNGTKGehqB7Kon1WgAWppfZwJqlPauijbVEVLY0Fv/Rb5LWRadgzp50+yhpTysxqQMFCX6EQycm0aQJZUFhqsnIQmaU7RUS9C6qiAKWPj2fBi8lsq+IHp21mCrwIoZ+utWrdocGFATYT42l8vtosDLixvIcz+K/ApMMLhIUkHkIQVB33GDIK53J9tImoooCEWyUJGAu2PUx3gwRFhznF6oeSX0gbjK5imiba/CzZltHOVTwpgr5rOQtj5hLvM+h0u+k+OxIjil9K+LRsbOCWutwA1udcS/WRp4pkHOS/qkmAWbDblI5lvkOjzaWOsiY9ANXGlWZtiRek1aZOfbEGRX9yFujz7fY8OKnlqGczGEn8JKFBbqmrQo+jJM0qVUWeSSh90urBgFhg0xZt+hexOSVD+/Fh5zWnj6whHVd5UXgkFgrU6ezDtdpzsi02tfc1KedBYqnLrnNIWWq0BMoHycI98t81C/8iC6bJvE6NngFwkRN9hjE7yOgQ0+BzbkIgIWWhJcmAdwO1JK78+ZKX86Bpqfl2gDkwz5TiWeZ3yVlIsNmAiooERmfNhIERBbMi5vsG3H2lLNRCFkxhpCK+Cu5HXjZN8pi66qz7vaYZJGEHBMni0KRRUqeVXmDBZgWbcjcNJEvB0NCeHmEtOhRWc4GgNguAni3Wsi3g8P67qmquVJb6fh/uI1CoItruVB2NWjfPgsXl5YaUZpGMMqdhqp0z9JA2XIthwwm5RgpPNYeaLYf7d9OeMIXeUFpqIHOhUkWcqnOulA/LscB/75nw/Xl+GMzJms5mS2lMPIzpW0tZoPWbmejq8DAJS5dwdoeeNoliEtWRShVt8GZfox+JlwXuDSldIF1MEM6THztRttkUazUBMrQBl3uqzCPa5rCmKiydO1FmTj/7rfBMQULL6n4klgWL92XC6VSU5+cn2mTmKpIhQ1DzrWChwwYYpm1XxjW06LwG9COpFZMkpp5BHiRjym0rYh6JzwTR02lkCzLMxyHxM61BJCJEnyZnoSBmQ0go3u9iTAD9SKrPGNAlkThALt9NRc3mWfxLZeiv1ZJhfiLxVWnHSrYIIafLwtoQTLSYhlVJg8rpG1iUlycb/I8ZVUx4znR6JSJKW1r9SDQLoigA36AKZDqpcpmNKyRmwhUsME4Xez+/j4DH6zy44EzpYpLZfAwHiJ+1Q+4WkQVRhUdKTgczN2aiBUtmR8GYGK7ySEocppUTFBPpR6rDel5pqcXchpwDNOYIVGBUjST8WtMp73BzMmRdJJlbSYmasuI5EOoZNA+83iOZbTRVpLLU7LQqHF3MzQ0vi8YC4AVlo7NADAEd6slYiLT2v1CRFKSMNhufT+sL6FeqEULUt7Y9bNXlpgRTRbQlj8YCEOM+ggWi1lbCAtSnE8Jk019hPxIWGasttQ/5GQjJrAaLyIKowqNrJJMkksaaLETRSP75faHJLzyXKXvT/UhYZKy01HKgCo+Xs4VZiGidTdPyNcMKrPOMh04CI4JpwmAqnnjKTmWpJRygqkigdmEWaE+1klNjOM01UZ6qJHSO4qlSGHTaQOsBdyuhHwlVTKqYGqQAiyvA0RZmgY7aImxKQSkyadTWhzokNXYjKbY6fdOSlf/F6j+qQJQxtcgBMhIiWQuzwCSEZHkbbpY0MxiU1Ym+J0yhy1sJ6gmhHgw8Zae01AybcK887nYtzgLYz6sGoic46GfzEDS7Cdp9oJ4Q60fCUnaqPN18AESzyRSbRiuMggXaSTLEnzEMl5zZxkH3/1G3QvuRFrHU6LXSS0uf1fOlYCFDpz31N6agyUOrQ0xV9NG7VBWpQcKitKwR5pGWGjMH8ggwr9MUpmKBCcCkXicD2qrD40aqeHq6J9vpIGxSb2CFrL2W9V+glhqfUSzqUPhYpTdaTRgqFpi5EvqBUbDNdNBlhQjVf0/v2IZhmaCJoeSOYmHttoQ2SSZllhrULpg9UVU/8z/0pkvFAu0leYoXoYHs4cJcXWA7YcQmjEidMDPlD+42TEmrTT/e6LO0HQmPqQWPCeFAlYwimq/xoLVjmJKFGjufkLs6qFiktZiJDIZMV5jwFUfqCgsdX1vMYdOprjb709V/H5kHIgHwxvwk2IwoK29TYas6dxpbGSpZYDokE6adFsRh/qXS1purD7ELQSN2SNJHrDHLA71Qhemdz1yuNzSKOrilTpHfU/Ud2BwoUq2UJS876t3Q1SxwXet2gqkxNrOV+cfIKAS2Lyxh2MNgsXn0bmFm8QJpO54puEKaiRdsyn7vr0+3m9LJYWPV5l2kHSBiI0b1YQksrHW4xKph97utYrNZLLTSfbp1ng3QKuxVnhgZlVw/V7Ejd873+Q4Moz3upDv9Chc7G+FXsE/tpKCKjCMuAo3QlxcIw1JYoPYkn82DYfmWgEuqsQEFWLPGF+tKWODEavoEwQYE9BCUYWL/fosyMtZfBBqxL49gd+EMho+iau1bAC4+q0VJi8tY4FfyIKBjPP6v6Oi0wWgIROS+PMLb4nmkKTRbMWzOcEdY4in3VIc6xSbmG3gtdjZqtMFIF4GK5Rv+eijP54nhsljQ+xrFvN3SVtriGwiET8902L7OAzOq0waDKiaFNMHGZbceuRNGwsJaQdDCPEwbaAvSX2uryGBkJSXn6cOzu0G/zm+ADUk7SksNK6bdrUf05QXmKNoODDIW1prA7gzMLOTAq1uS/pUEvTsDyAKV+ijkpITyO0D4nTCgC7qtDiEEHjYVHICx9dwl0GCBXhogP1OyG4nnxGPFh6YYoIUXdcKIMFRnlFFnkuLsOkZuJL47P+iEAV3QqJ30qlQreBPKCkXfmUeG4hDhwbSGkjpcrQJKkUk6G8OFoGHxIszH2iy1mY4Nd6uySxcpFnyLC4VeGiHE1vbm7u7m5o5iASG8vwbjS+mwMPv0TGnPyhSDIbDi37bHilpoti1u+BMsm54FELSDM8sxiVs6NNMJaCSwT5WaJ0gxqS014UnVkARac17WtHZs65II1LSAFYAAit2cPd+xjWzEYPazGhtiD8YVasc2e7Zjmzeev/mXwW6sk5Y8UQsbiQVda8NiY5WlVgH2bEX9pbd7YaGTa/f1/1Cgv3thrt3O9YedbEG74lAguxeSq8Zp5i9GZvvtHL9LYmEseyIykvcAwkg0uIonkpt+VBtMMCLsTEGq7nffyXN1EOrOiAKP3AYzGw1SRchgMQvM1wvHxlHaYIKRwIHQZFXMgs4nrHZdWTK1VdGMBY0mjD8TWCfMopYaacSQ0ZgvPZ8/V7VkfMZL/0hznU5fGHypYnukny+WhLWRrAMDW42pUc2PpIqS/tY8Tz0VT4nRT2lDUnRLDasyecEhX/r8LP5W2ApxW1JskARbajimBjlQxN8xBwQXPxQ8wN6O6DHBJl3VlVf6HnPg4+JLUtqhhwkE4zHBiSiVKsrfvlyjLOLjGxUPsPtP1nb6qwvrQFJWEWDkSz8//v5/svDX4uv/VIoJttS7m9vb23CdSKqK8qXXOttGvjj0bvOPUkwgFHsxxOZAAqVi0uwMU6mi/Jff/M9FPjFG3+WKCV2wFkJpDt78+9Rv+fvj4otKMUk3SFKkOEql/8WqSA9fvyktNaKY5BzkS6XbWBXpo/dJaanBfjKFKlJvKx+DQUYdQnAek9wt8lSRzsa1MXhcKyy1ZyBmi0d25V1kcZC8CC6+/FRZ6mSqXk+lknJz8CYOkhfD188K11WFUulzHCQvDmVMLefgU6yKlgOlpUaQL/2Mg+RlQhlTQxx8i1XRsqGsQrAolX7EQfJKoIqpKTEoxapodejdltQCkS/9HQfJK4bKUsfm4NfgWlKWi8s3vw5YCOGZ5Dg6+IWAQoiYgycA6zGRhF3sFj0FRp9+ljyfKU/++fxvnLB7Moz+vf3x/dPH65iCGDFixIgRY2H8H7mwBXuo4+SjAAAAAElFTkSuQmCC;container=0;" parent="ATEDQ_KVCxQ0XwKxGGRF-86" vertex="1">
          <mxGeometry x="10" y="10.20999999999998" width="119.07" height="39.79" as="geometry" />
        </mxCell>
        <mxCell id="7m8nNuz5X5mmQi77jWC5-2" value="" style="group" parent="1" vertex="1" connectable="0">
          <mxGeometry x="340" y="40" width="170" height="60" as="geometry" />
        </mxCell>
        <mxCell id="ATEDQ_KVCxQ0XwKxGGRF-47" value="" style="rounded=1;whiteSpace=wrap;html=1;fontSize=16;strokeColor=none;container=0;" parent="7m8nNuz5X5mmQi77jWC5-2" vertex="1">
          <mxGeometry width="170" height="60" as="geometry" />
        </mxCell>
        <mxCell id="ATEDQ_KVCxQ0XwKxGGRF-37" value="MyBatis Plus" style="text;html=1;strokeColor=none;fillColor=none;align=center;verticalAlign=middle;whiteSpace=wrap;rounded=0;fontSize=16;fontStyle=1;container=0;" parent="7m8nNuz5X5mmQi77jWC5-2" vertex="1">
          <mxGeometry x="50" y="10" width="120" height="40" as="geometry" />
        </mxCell>
        <mxCell id="7m8nNuz5X5mmQi77jWC5-1" value="" style="shape=image;verticalLabelPosition=bottom;labelBackgroundColor=default;verticalAlign=top;aspect=fixed;imageAspect=0;image=data:image/jpeg,/9j/4AAQSkZJRgABAQAAAQABAAD/2wCEAAkGBxAPDw8OEBAQEBASFxAVFxUWFxUVFhAQGBYXFhkYFhcYHSggGBomGxUVITEhJSotLy4uGCAzODM4NygtLisBCgoKDg0OGhAQGi8lHSEtLS0vLSstKystLS8uKy0tLS0tKystLTctKy0vLSstMC0tLS0vLS0rKy0tKy0tLS0tLf/AABEIANAA8wMBIgACEQEDEQH/xAAcAAABBQEBAQAAAAAAAAAAAAAAAgMEBgcFCAH/xABIEAABAwICBgUICAIIBwEAAAABAAIDBBEFIQYSMUFRYQcTInGBFDJCUmKRkqEjM3KCorHB0UOyFSRUY3PC4fAXg6Ozw9LxCP/EABoBAQEAAwEBAAAAAAAAAAAAAAABAgMFBAb/xAA1EQACAQICBwYFAwUBAAAAAAAAAQIDEQQxBRIhQXGBoVFhkbHB0RQiMkLwFTNDEzRSovEj/9oADAMBAAIRAxEAPwDcUIQgBCEIAQhQzXxdcKfXb1pBdq79UW28NqqTeSI2lmTEIQoUFzccxNtJA6dzXOALRYcSbC53C+9dJQ8VoxPBJA7Y9pF+B3HwNj4LOm4qa18r7eBhUUnF6mdtnEzgaWzyVcM0rtSFjgerbcBrT2XE8Tqk5nwstSCw6ogdG90bxqvYS1w4EK1YLps+GNsM0XWNYAA4Os4NGwEEWPfcfqu/pDR+vGLoRWzZZWWzNNfl3c4mBx2o5Ks3teb3PJp9nkrGkIVObp/T74ph3ap/UKTFpzRnb1rPtMv/ACkrkvR+JX2Plt8jqLG4d/evEtCFAw7FIKkEwytkttAyc3vacx7lPXklGUXaSs+89MZKSundAhCFCghCEAIQhACEIQAhCEAIQhACEIQAhCEAIQhACEIQHB0wqJo6OSSAlrgW6zhtay+ZHDdnuFysyw6ufBPHUXLnsNzc5v8AWBJ4gkX5rZ5WBzXNcLtcCCOIORCxzHMNdSzyQuvkeyfWYdh923uK72h6kJRlSaV8+Kya5epxNK05KUaqezyed/zsRsNPO2RjJGG7XgOB4gi4TyzXRDShtO3yee/VXJa4Akxk5kEDMi+eWwq2z6V0TBfyhp5AOJ9wGXiudXwFalU1FFtbmle50KONpVIazkk96by/Nx3UKj1Gmc0xMdDTPefWcCSPuDId5PgudNhGL1X12uGncXta34WH9Fsho6S/enGHFq/hf1uYSx8X+1Fz4J28bdUmi24xh9BM69QIQ8ZaxeGOtzIcCfFc5ujeFOyYYyfZmJP8xVZm0HrGjssY/kHj/NZQKnRqsjF3Uz7crO/kJXQo4eCio08S+Cdv9dY8NWtPWcp4ZcbX66pdn6BUh2OmH3mkfNqrekOiLqSMzsk6xgtrZarmAmwO0gi/cuBSVksJvFI6Mjg4tz5gbfFW6j0ldVUdVBNbrmxkhwFtdosDcbA4X3bfBbZU8XQknr60bq6as7N2/LM1xnhcQnHU1ZWdrZXXh1SK1gM7o6qncwkHXYO9pIBB5EErZliuDj+s0/8AixfzBbUvJptLXg+5+Z6dD/tz4ryBCELiHXBCFyMR0koqYkS1MTXDa0HWcPutufkgOuhUqp6S6Bps1tRLzawAfjc0/JR/+KFN/Z6j/p/+ylzLVZfUKl03SVQuycyoj5uY0j8Difku9hukdHU2ENRG5x9EnVf8DrO+SpGmjrIQhCAhCEAIQhACEIQAhCEAIQhAC4ukOAx1rAHHUe2+q8C5HEEbxyXaQs6dSVOSnB2aMJwjOLjJXTM4HR/UX+uh1ePavbu1f1XewvQmlis6TWnePW7Lb8mD9SVaUL2VdJYmora1uGw81PAYeDuo+O3zGYIWxtDGNaxo2BoAA7gE8hC8B7AQhCApPSDhDDD5U1obI1zQ4gW12OOqL8SCW58yqFG8tJI3hw8HAj9Vrmk9KZqOojbm4tBA4lpDrDn2VkAX02h6jnQcW/pduW7rc+d0pT1Kyklmuv8AyxIw6XUmhedjXsd4Ag/otuWEkLX9HsRE9JFM5wuG2eTlZzcnE8Nl+4rTpuD1YT7Lrx2+jN2iKm2cOD9PY66p+lOntPRF0Uf9YqBkWNNmxn23bj7IueNlU9OOkN0xdS0Ly2LY6YZOl4iM+i32tp3Zbc8avnr3yO+odpYMa0trawnrZnNYf4cd2MtwIBu77xK4rUkFfQVGbR0FLBTIKcBUAsJRCSClIUsOBaaVlJZof10Q/hyEnL2Xec35jktQ0d0op69v0Z1JQLuidbWbzHrN5jxssOS4JnRvbIxzmPabtcDYtPEFW5g4pnoxCqOhGlza1vUTWbVNHcJmj0m8DxHiMtluWRqasCEIQgIQhACEIQAhCEAIQhACq/SVUSxYRXSwvfHKyPWa9hLXNIc03BGYyurQuRpXQGqw+tph50sE7B9ssIb87IDBdHemvEqezalsVawb3fRSfGwW97SVpOB9MuFVFhMZaR+WUjS5l+T2XFubrLzSxSGoD2RhuK09U3Xp54Z2cY3teB36pyU5eMKWR0bhJG50bxsc0lrh3OGYVywXpLxelsBVmdg9GcCUHvebSfiQtj06sn0wwc0tS4tH0Utyzg31h4E+4hRMJ6btgq6I7u3A8G//AC5LW+IqzP0zwbFITA6pbC42LeuBidHJuIc7sk52sCb5hezA4v4epd/S9j9+Xut548bhf69OyzWXtz9nuKOn2V0rYZKcPIikILmbnEC2fLZcb7BfK2nMUj4i5jyw21mEOa7mCP8AYTS+t+WaTzWfqj5f5oN7mtno0MOpWHbHH8ITLsMiPokdxKmIWueHpT+qCfFI2RxFWH0za5s57sKj3OePhP7Jv+iTuePEaq6iF5p6LwsvstwbXS9uh6Y6TxUfvvxSfpfqcg4bIN7D4/6JPkUg3fMfuu0vhC0y0Lh3k5LmvVM3x0ziFmovk/SSON5JJ6jvcleTyeo/4XLrr6tX6HS/zl0Nq03U3wXU4/UP9R/ucvvk7/Uf8JUHSY1ms0wh4ibndhOu53tgZkchf9oOF6WPadWca42a7QA4H2m7D4WXhngsPTqalSU0tza2Ph75Hshjq9SnrwjFvelLauK9M+4sNM2aJ7JIxIx7CHNcGm7XBbXovjQradsttSQdmRnqvHD2TtH+hWP0tSyVofG4Pad4/I8DyVj0LxPyerY0mzJrMd3k5HwcfddeiroiEabnTk27XWVn+bjzQ0tKdRQnFLbbfdfjNYQhC4h1wQhCAEIQgBCFn/TdQmXBpJBra1PJBMCLgjtdW45cGyOPggNAQvJuHaZYnBbqq+qaBudIZGj7smsPkrHRdLeMR5Omhm/xIm/+PUQtj0ehYXR9NdaB9LSUsh9gyRfmXrsUnTa0/W0Dm/YmD/5mNUuLGRdIWCGgxWsprWYJHPjysOpk7bQONg7V72lcJq0PpSx6lxh9PUU8M0NRGHRv6wM1ZIr6zbFribtcXbR6XJUX+j5R6IPcQgsxtieYvgpZBtY73X/JKAttyQyHmKVTx3PJRom3Nl0WCwsEKdPDMQMJttYdreHMc1ZoZmvaHNNwVSgVKoqx8Ru0943OXTwOkXQ+Se2HVcO1d3h2PnY7Ryr/ADw2T6Pj39/J7Nqt6FDosQZLkOy71Tt+7xU1fTU6kakdaDuj5qpTlTlqzVn2HxCF8WwwJ+G4RPUuAijc4EgF9jZudiS7ZlwVk02wB/WRy08TnsDGscGjWILBqgkDPzbDwXHwrSqqpy0GQyRC12Pz7O8NJzGWzOysmmekssDo4qd4brNDnPsHGzvNAvkMgTs3hcqvLFfEwUUrWlba7br3dl3WtyOnRjhvh53b+2+xX32stvfnzKCRbI5EfIrs6L4Ia2YtJLYmAOeRtsdgHM2PuK5VTUPlcXyPc952lxJPzV36MpW2qmeleN3e2xH5j5r042rOlh5Tjn5XdrnmwdKFSvGEsvOybtv8zvztocNgfO8RU8MY7T3C5O4XObnEnIDMknJZBpvpbo/iRdekrWyjJtVFHCxx4Xa6Qa7eTgDttbauh/8Aoepkvh0FyISKiS250reraCeYa93xlZNhs7Ip4JZGdbHHJE97MvpI2vDnMzyzAIz4r5CUpSd5O7PqklFWS2Elkz6OQPhlD2OF2u1XNbMzdrMdYg/luJGZueC4q2qYXBrmObYOHoh3su3/AJq2dImnuEVOHfROjq5taF0cLmOBbZzS8P1m9gFmu0788uI5E9HFA4xQDVhDWujG8RPaJBcnMnVcLk7SuzoepU13FS+VK9ue7s9epyNLwhqKTW1u18tzz7fTobFgVZ19NBMdrmjW+2MnfiBXQVV6O5dai1fUe8eBDXfm4q1Ll4imqdacFub8L7Dp0J/1KUZvek+gIQhaTaCEIQAoeK0LKmnnppPq5mSRu+y9pabc81MQgPG+I0MlNPNTSi0kL3xu+002uOR2jkQm2laz09aLFkkeLRN7MmrFPbdIBaN55EDUJ4tZxWRsKhkSWlPNKitKeYUMiSwp5pUZpTzCoCQ0p4Z7VGaU60oZDrYGeqB3ZfkvppRuPvQ0p5hQWIr4XN2jLikgrptKZmpQc25HhuP7IWxFaV1aPGHssH9tvH0h47/Fci1jYpQK20a1SjLWpuz/ADNb+ZprUKdaOrUV1+ZPdyLbTVscnmuz4HJ3u3qUqWCp1PicrPS1xwdn89q7dDTSyrR5r2fu+Bxq+hnnSlyl7penMsy+ySFxu4kkBoz9VoDQPAADwXJgxlp89rm8xmFNhqo3+a9p5bHe4rqUsXQq/RJN+D8HtOXVwlel9cWl25rxVyQpuCYo+knbOzO2Tm+u07W/IHvAUJC9E4KScZLYzzxm4tSi9qL7pXgtPpBQ6sUgbLGdeNx2xS2sWSNGeq4ZHwIvYLz/AI7o5WUDyyqp5YrelYmN3Nsg7J991otPO+NwfG9zHD0gS0+8LtR6X17Rbr78yxhPvsuBV0NLW/8AKSt33uvBO/Q7lLS8bWqRd+61vBtWMn0d0WqK93ZY6KmGctQ8ERxR7yHHz3cGtuSbd60Kvma+RzmDVZYNYDtbG1oYwHnqtancRxWepIM0r5LbAcmg8Q0WAPOyiL34DAfD3lJ3k9ncvc8WNxvxFoxVkvFnHxXS6uw2dgpJzGxzQ5zC1r2PdrOFyHDLIAXBByVi0d6a6h72w1FB5Q8/2XW6w90Lr3+IKqV2JUcFeH1lCK2MRxZdY+Ms7T3E6oOrJkR2Xe9bDoHpXg9UwQ4f1VO+1zT6jYXjjkOy/vaSuBj3fEz4nbwX9vDgdyhxvrY2S+S1kesL6skWq9vJzb5FfV10LyHqBCEIAQhCAg4th0VXBLTTN14pWuY4cWngdxG0HcQvK2mGjc2FVklJLmB2o37poSTqu79xG4g8ivW6qun+h0WL0vVOsyePWdDLb6t52g8WOsARyB2gIDy40p5pX3E8OmpJ5KaoYY5ojquadx3EHe0jMEZEFNNKhmSWlPNKjMKeaUKSWlOtKjMKeaVCklhTrSozSnmlDIksKeaVFaU80oD5WQ3GsNo28woIK6rSuXK3VcW8D8kQYoFKBTQKWChBwFLCbBSgUauVEmKpe3zXOHjl7lKZiUo3tPeB+i5wKWCt1PEVaf0Ta4NpeGRqnQpVNs4J8Un1Z1G4s/e1n4h/mSxirvVb81ygU4Ct/wCo4pfe+nsaP0/Cv7F19zo/0o71Wfi/dfHV7zuaO4fuoAKUL7szuHErCWPxL/kfLZ5WM1gcMv41zV/O5rmheiVDLSQVVRSU89RIC4vkY15trHUsHAgWbq7FdoIGRtDWMaxo3NAaB4BM4XSCCCCAbIo42fC0N/RS1obbd2ZWS2IEIQoAQhCAEIQgBCEICl9IugcOLxBwIiq4weqltkRt6uS2ZYT4tOY3g+ccUwyejmfTVMbopmbWnhuLTsc07iMivYSxXpt0kw6cCiZGyorInZzA2FJn2maw89x2FmwbTmAEKjIGlPMKjhOMKhkSmlOtKjNKeYVCklpTrCo7SnWlCklpTzCozCnWlDIktK59U673f72CykyTarb793eufdAxwFLBTQKWChB0FKBTQKWCgHAUoFNgpYKFHAUsFNApYKAdBXc0LofKMQpY7XaHh7vsx9s35HVA8VwQVpXQ5ht31NYRk0CFp5mz3/IR+8oJOyNSQhCyNAIQhACEIQAhCEAKNXVsVPG+aaRkUTBdz3ENa0cyVUNNOkyhwzWi1vKaoXHUxkdh396/MR92Z5LA9LNMazFZNeqk7DTdkLcoou5u923tG5z4ZIC8dIHS3JVa1LhxfDTm4dMQWyzD2N8befnHlvy1vBNgpYKhkOApQTYKWChR5hTrSowKca9CkthTzSojZUtsw5oCa0pbpQ0ZqCag7sknWUMrj75S43P/AMXwFNgpQKEHQUoFNgpQKAcBSwU0ClAoUdBSwU0ClgoBwFKBTYKUChR0Feg9DsJ8joYICLP1dZ/+K/tOHhe3cAsi6OMG8sr49YXigtK/gSD2G+LrZbw1y3lVGub3AhCFTAEIQgBCyvS3pppKOSWnp6eaonjJa7XBhY14JBB1hrkgjZqjvWSaTdJuKV+sx1QYIT/DgvG0jgXX1nDkTbkgN90r6SMNw3WZJN104/gw2e8Hg831WbR5xB4ArF9Lulqvr7xQnyKnPoxOPWPHty5HwbbbndZyEsFAOtSwU0ClgqFFgpQKQCvoKFHQUsFNApYKAcBSgU2ClAoUdBSwU0ClAoB0FKBSAV9BUKOApYKbBSgUA6ClApsFKBQo4ClgpoFLBQDgKWCmgUoFCjoKVdNgq69F+jfltV18jb09MWuN9kk21jOYHnHuA3oL2NK6OcA8ho267bTz2kkvtbcdlngPmXK1oQsjS3cEIQgBCEIDNulbo1ZijDV0wayvYO5tUwbGvO543O8DlYt82VdNJDI+KVjo5GEtc1wIc1wyIIOwr24qF0kdHEGLsMrLQVrR2ZbZSAbGSgZkbg7aOYyIHloFLBU/HcEqKCd9NVROilbuOxzdzmnY5pscwucCgHQUoFNApYKFHQUsFMgpwFQCwUoFIBX0FCjoKWCmgUsFAOApQKbBSgUKOgpYKaBSgUA6ClApAK+gqFHAUsFNApYKAdBSgU2ClAoUcBSgU2CnYWOe5rGtLnOIa1oFy5xNgABtJKAnYRh0tXPHTQt1pJDYcGje53BoGZXovRzBoqGmjpYswwZu3yPObnHmT7shuXC6OdDxh0JklANXKBrnb1TdojafmTvPIBXJVGEncEIQqYghCEAIQhACEIQHB0q0WpMUgMFVHrDPUeLCSFx9JjrZHZlmDbMFeddPOjOswoulANRSbpmA3YP71vod+zZnc2XqhJcARY5g/MIDxAClgr0Zpp0NUdZrTUWrRznPVA+geebB9X3ty9krDtJdE63DH6lXA+ME2bIO1FJt814yJsL22jeAgOOClgpkFLBQo6CvoKQClgqAWClApsFKBQo6ClApsFKBQDoKUCmwUoFCjoKUCmgUsFCjoKUCmwUoFQDgKWCmgV0MHwqorZm09NE6WQ7hsY31nu2NbzP55IBiJjnOa1rS5ziAGtBLnOOQAAzJPBbh0b6BChArKoA1bh2W5EUzSMwDsLyNp3bBvJm6CaAw4YBNIWz1hGcluzEDtbEDs4FxzPIZK7KmLl2AhCFTEEIQgBCEIAQhCAEIQgBCEIATFTTslY6ORjZI3CzmuAc1w4EHIhPoQGXaU9C1BVXkpHOopTnYDXiJ+wTdv3SAOCyjSLouxWhu4wGpiH8SC8g8WW1x8Nua9UIQHiUixIORGRB2g8wlgr17jmi9DXgirpIZjYjWLQHgezILOb4FUPGOg3D5dZ1NPUUrjsBImjb4Os4/EgMABX0FafiXQbiMZJgqKWdvta8Tj4WcPxKuVnRpjMN9aglcBvjdHJfu1XE/JQqKsClAqfNo9Xx/WUNYz7UEw/NqhSQPZk9j2H2mlv5hCn0FKBSI2k7AT3C6mwYVVP8AMpal9/Vhldf3NQEcFLBXdotBcWm8zD6n77RD/wB0tVmwzobxOWxmdTUzebjI8fdYNU/EhblABTtLC+V7YomPkkdsYxpe53c1uZW24P0L0UdnVU89Ud7R9DGfBp1/xq/YPgtLRs6umgigbv1GgFx4uO1x5lLEuY5or0R1M5bLXO8liyPVts6Z45nNse71jyC2HAsDpqCIQU0TYmbTbNz3cXOObjzK6aFSN3BCEIQEIQgBCEIAQhCAEIQgP//Z;container=0;" parent="7m8nNuz5X5mmQi77jWC5-2" vertex="1">
          <mxGeometry x="9.899999999999977" y="12.840000000000003" width="40.1" height="34.32" as="geometry" />
        </mxCell>
      </root>
    </mxGraphModel>
  </diagram>
</mxfile>
